*
*
G04 PADS VX.2.3 Build Number: 9191294 generated Gerber (RS-274-X) file*
G04 PC Version=2.1*
*
%IN "3_96-6P转接板-V1.pcb"*%
*
%MOIN*%
*
%FSLAX35Y35*%
*
*
*
*
G04 PC Standard Apertures*
*
*
G04 Thermal Relief Aperture macro.*
%AMTER*
1,1,$1,0,0*
1,0,$1-$2,0,0*
21,0,$3,$4,0,0,45*
21,0,$3,$4,0,0,135*
%
*
*
G04 Annular Aperture macro.*
%AMANN*
1,1,$1,0,0*
1,0,$2,0,0*
%
*
*
G04 Odd Aperture macro.*
%AMODD*
1,1,$1,0,0*
1,0,$1-0.005,0,0*
%
*
*
G04 PC Custom Aperture Macros*
*
*
*
*
*
*
G04 PC Aperture Table*
*
%ADD010C,0.01*%
%ADD076C,0.001*%
%ADD086C,0.1*%
%ADD096C,0.055*%
%ADD132C,0.10236*%
*
*
*
*
G04 PC Circuitry*
G04 Layer Name 3_96-6P转接板-V1.pcb - circuitry*
%LPD*%
*
*
G04 PC Custom Flashes*
G04 Layer Name 3_96-6P转接板-V1.pcb - flashes*
%LPD*%
*
*
G04 PC Circuitry*
G04 Layer Name 3_96-6P转接板-V1.pcb - circuitry*
%LPD*%
*
G54D10*
G01X1967242Y1625000D02*
G75*
G03X1967242I-6218J0D01*
G01Y1675000D02*
G03X1967242I-6218J0D01*
G01Y1625000D02*
G03X1967242I-6218J0D01*
G01Y1675000D02*
G03X1967242I-6218J0D01*
G01X2068900Y1705000D02*
G03X2060000Y1713900I-8900J0D01*
G01X1940000*
G03X1931100Y1705000I0J-8900*
G01Y1495000*
G03X1940000Y1486100I8900J0*
G01X2060000*
G03X2068900Y1495000I0J8900*
G01Y1705000*
G03X2060000Y1713900I-8900J0*
G01X1940000*
G03X1931100Y1705000I0J-8900*
G01Y1495000*
G03X1940000Y1486100I8900J0*
G01X2060000*
G03X2068900Y1495000I0J8900*
G01Y1705000*
X2045194Y1575000D02*
X2045194D01*
X2045085Y1573839D02*
G03X2045194Y1575000I-6109J1161D01*
G01X2045085Y1573839D02*
G03X2045076Y1573746I491J-93D01*
G01Y1526254*
G03X2045085Y1526161I500J0*
G01X2032867D02*
G03X2045085I6109J-1161D01*
G01X2032867D02*
G03X2032876Y1526254I-491J93D01*
G01Y1573746*
G03X2032867Y1573839I-500J-0*
G01X2045194Y1575000D02*
G03X2032867Y1573839I-6218J-0D01*
G01X2045194Y1675000D02*
X2045194D01*
X2045085Y1673839D02*
G03X2045194Y1675000I-6109J1161D01*
G01X2045085Y1673839D02*
G03X2045076Y1673746I491J-93D01*
G01Y1626254*
G03X2045085Y1626161I500J0*
G01X2032867D02*
G03X2045085I6109J-1161D01*
G01X2032867D02*
G03X2032876Y1626254I-491J93D01*
G01Y1673746*
G03X2032867Y1673839I-500J-0*
G01X2045194Y1675000D02*
G03X2032867Y1673839I-6218J-0D01*
G01X2029604Y1575000D02*
X2029604D01*
X2029495Y1573839D02*
G03X2029604Y1575000I-6109J1161D01*
G01X2029495Y1573839D02*
G03X2029486Y1573746I491J-93D01*
G01Y1526254*
G03X2029495Y1526161I500J0*
G01X2017277D02*
G03X2029495I6109J-1161D01*
G01X2017277D02*
G03X2017286Y1526254I-491J93D01*
G01Y1573746*
G03X2017277Y1573839I-500J-0*
G01X2029604Y1575000D02*
G03X2017277Y1573839I-6218J-0D01*
G01X2029604Y1675000D02*
X2029604D01*
X2029495Y1673839D02*
G03X2029604Y1675000I-6109J1161D01*
G01X2029495Y1673839D02*
G03X2029486Y1673746I491J-93D01*
G01Y1626254*
G03X2029495Y1626161I500J0*
G01X2017277D02*
G03X2029495I6109J-1161D01*
G01X2017277D02*
G03X2017286Y1626254I-491J93D01*
G01Y1673746*
G03X2017277Y1673839I-500J-0*
G01X2029604Y1675000D02*
G03X2017277Y1673839I-6218J-0D01*
G01X2014013Y1575000D02*
X2014013D01*
X2013904Y1573839D02*
G03X2014013Y1575000I-6109J1161D01*
G01X2013904Y1573839D02*
G03X2013895Y1573746I491J-93D01*
G01Y1526254*
G03X2013904Y1526161I500J0*
G01X2001686D02*
G03X2013904I6109J-1161D01*
G01X2001686D02*
G03X2001695Y1526254I-491J93D01*
G01Y1573746*
G03X2001686Y1573839I-500J-0*
G01X2014013Y1575000D02*
G03X2001686Y1573839I-6218J-0D01*
G01X2014013Y1675000D02*
X2014013D01*
X2013904Y1673839D02*
G03X2014013Y1675000I-6109J1161D01*
G01X2013904Y1673839D02*
G03X2013895Y1673746I491J-93D01*
G01Y1626254*
G03X2013904Y1626161I500J0*
G01X2001686D02*
G03X2013904I6109J-1161D01*
G01X2001686D02*
G03X2001695Y1626254I-491J93D01*
G01Y1673746*
G03X2001686Y1673839I-500J-0*
G01X2014013Y1675000D02*
G03X2001686Y1673839I-6218J-0D01*
G01X1998423Y1575000D02*
X1998423D01*
X1998313Y1573839D02*
G03X1998423Y1575000I-6108J1161D01*
G01X1998313Y1573839D02*
G03X1998305Y1573746I492J-93D01*
G01Y1526254*
G03X1998313Y1526161I500J0*
G01X1986096D02*
G03X1998313I6109J-1161D01*
G01X1986096D02*
G03X1986105Y1526254I-491J93D01*
G01Y1573746*
G03X1986096Y1573839I-500J-0*
G01X1998423Y1575000D02*
G03X1986096Y1573839I-6218J-0D01*
G01X1998423Y1675000D02*
X1998423D01*
X1998313Y1673839D02*
G03X1998423Y1675000I-6108J1161D01*
G01X1998313Y1673839D02*
G03X1998305Y1673746I492J-93D01*
G01Y1626254*
G03X1998313Y1626161I500J0*
G01X1986096D02*
G03X1998313I6109J-1161D01*
G01X1986096D02*
G03X1986105Y1626254I-491J93D01*
G01Y1673746*
G03X1986096Y1673839I-500J-0*
G01X1998423Y1675000D02*
G03X1986096Y1673839I-6218J-0D01*
G01X1982832Y1575000D02*
X1982832D01*
X1982723Y1573839D02*
G03X1982832Y1575000I-6109J1161D01*
G01X1982723Y1573839D02*
G03X1982714Y1573746I491J-93D01*
G01Y1526254*
G03X1982723Y1526161I500J0*
G01X1970505D02*
G03X1982723I6109J-1161D01*
G01X1970505D02*
G03X1970514Y1526254I-491J93D01*
G01Y1573746*
G03X1970505Y1573839I-500J-0*
G01X1982832Y1575000D02*
G03X1970505Y1573839I-6218J-0D01*
G01X1982832Y1675000D02*
X1982832D01*
X1982723Y1673839D02*
G03X1982832Y1675000I-6109J1161D01*
G01X1982723Y1673839D02*
G03X1982714Y1673746I491J-93D01*
G01Y1626254*
G03X1982723Y1626161I500J0*
G01X1970505D02*
G03X1982723I6109J-1161D01*
G01X1970505D02*
G03X1970514Y1626254I-491J93D01*
G01Y1673746*
G03X1970505Y1673839I-500J-0*
G01X1982832Y1675000D02*
G03X1970505Y1673839I-6218J-0D01*
G01X1967242Y1575000D02*
X1967242D01*
X1967132Y1573839D02*
G03X1967242Y1575000I-6108J1161D01*
G01X1967132Y1573839D02*
G03X1967124Y1573746I492J-93D01*
G01Y1526254*
G03X1967132Y1526161I500J0*
G01X1954915D02*
G03X1967132I6109J-1161D01*
G01X1954915D02*
G03X1954923Y1526254I-492J93D01*
G01Y1573746*
G03X1954915Y1573839I-500J-0*
G01X1967242Y1575000D02*
G03X1954915Y1573839I-6218J-0D01*
G01X1967242Y1625000D02*
G03X1967242I-6218J0D01*
G01Y1675000D02*
G03X1967242I-6218J0D01*
G01X2045194Y1575000D02*
X2045194D01*
X2045085Y1573839D02*
G03X2045194Y1575000I-6109J1161D01*
G01X2045085Y1573839D02*
G03X2045076Y1573746I491J-93D01*
G01Y1526254*
G03X2045085Y1526161I500J0*
G01X2032867D02*
G03X2045085I6109J-1161D01*
G01X2032867D02*
G03X2032876Y1526254I-491J93D01*
G01Y1573746*
G03X2032867Y1573839I-500J-0*
G01X2045194Y1575000D02*
G03X2032867Y1573839I-6218J-0D01*
G01X2045194Y1675000D02*
X2045194D01*
X2045085Y1673839D02*
G03X2045194Y1675000I-6109J1161D01*
G01X2045085Y1673839D02*
G03X2045076Y1673746I491J-93D01*
G01Y1626254*
G03X2045085Y1626161I500J0*
G01X2032867D02*
G03X2045085I6109J-1161D01*
G01X2032867D02*
G03X2032876Y1626254I-491J93D01*
G01Y1673746*
G03X2032867Y1673839I-500J-0*
G01X2045194Y1675000D02*
G03X2032867Y1673839I-6218J-0D01*
G01X2029604Y1575000D02*
X2029604D01*
X2029495Y1573839D02*
G03X2029604Y1575000I-6109J1161D01*
G01X2029495Y1573839D02*
G03X2029486Y1573746I491J-93D01*
G01Y1526254*
G03X2029495Y1526161I500J0*
G01X2017277D02*
G03X2029495I6109J-1161D01*
G01X2017277D02*
G03X2017286Y1526254I-491J93D01*
G01Y1573746*
G03X2017277Y1573839I-500J-0*
G01X2029604Y1575000D02*
G03X2017277Y1573839I-6218J-0D01*
G01X2029604Y1675000D02*
X2029604D01*
X2029495Y1673839D02*
G03X2029604Y1675000I-6109J1161D01*
G01X2029495Y1673839D02*
G03X2029486Y1673746I491J-93D01*
G01Y1626254*
G03X2029495Y1626161I500J0*
G01X2017277D02*
G03X2029495I6109J-1161D01*
G01X2017277D02*
G03X2017286Y1626254I-491J93D01*
G01Y1673746*
G03X2017277Y1673839I-500J-0*
G01X2029604Y1675000D02*
G03X2017277Y1673839I-6218J-0D01*
G01X2014013Y1575000D02*
X2014013D01*
X2013904Y1573839D02*
G03X2014013Y1575000I-6109J1161D01*
G01X2013904Y1573839D02*
G03X2013895Y1573746I491J-93D01*
G01Y1526254*
G03X2013904Y1526161I500J0*
G01X2001686D02*
G03X2013904I6109J-1161D01*
G01X2001686D02*
G03X2001695Y1526254I-491J93D01*
G01Y1573746*
G03X2001686Y1573839I-500J-0*
G01X2014013Y1575000D02*
G03X2001686Y1573839I-6218J-0D01*
G01X2014013Y1675000D02*
X2014013D01*
X2013904Y1673839D02*
G03X2014013Y1675000I-6109J1161D01*
G01X2013904Y1673839D02*
G03X2013895Y1673746I491J-93D01*
G01Y1626254*
G03X2013904Y1626161I500J0*
G01X2001686D02*
G03X2013904I6109J-1161D01*
G01X2001686D02*
G03X2001695Y1626254I-491J93D01*
G01Y1673746*
G03X2001686Y1673839I-500J-0*
G01X2014013Y1675000D02*
G03X2001686Y1673839I-6218J-0D01*
G01X1998423Y1575000D02*
X1998423D01*
X1998313Y1573839D02*
G03X1998423Y1575000I-6108J1161D01*
G01X1998313Y1573839D02*
G03X1998305Y1573746I492J-93D01*
G01Y1526254*
G03X1998313Y1526161I500J0*
G01X1986096D02*
G03X1998313I6109J-1161D01*
G01X1986096D02*
G03X1986105Y1526254I-491J93D01*
G01Y1573746*
G03X1986096Y1573839I-500J-0*
G01X1998423Y1575000D02*
G03X1986096Y1573839I-6218J-0D01*
G01X1998423Y1675000D02*
X1998423D01*
X1998313Y1673839D02*
G03X1998423Y1675000I-6108J1161D01*
G01X1998313Y1673839D02*
G03X1998305Y1673746I492J-93D01*
G01Y1626254*
G03X1998313Y1626161I500J0*
G01X1986096D02*
G03X1998313I6109J-1161D01*
G01X1986096D02*
G03X1986105Y1626254I-491J93D01*
G01Y1673746*
G03X1986096Y1673839I-500J-0*
G01X1998423Y1675000D02*
G03X1986096Y1673839I-6218J-0D01*
G01X1982832Y1575000D02*
X1982832D01*
X1982723Y1573839D02*
G03X1982832Y1575000I-6109J1161D01*
G01X1982723Y1573839D02*
G03X1982714Y1573746I491J-93D01*
G01Y1526254*
G03X1982723Y1526161I500J0*
G01X1970505D02*
G03X1982723I6109J-1161D01*
G01X1970505D02*
G03X1970514Y1526254I-491J93D01*
G01Y1573746*
G03X1970505Y1573839I-500J-0*
G01X1982832Y1575000D02*
G03X1970505Y1573839I-6218J-0D01*
G01X1982832Y1675000D02*
X1982832D01*
X1982723Y1673839D02*
G03X1982832Y1675000I-6109J1161D01*
G01X1982723Y1673839D02*
G03X1982714Y1673746I491J-93D01*
G01Y1626254*
G03X1982723Y1626161I500J0*
G01X1970505D02*
G03X1982723I6109J-1161D01*
G01X1970505D02*
G03X1970514Y1626254I-491J93D01*
G01Y1673746*
G03X1970505Y1673839I-500J-0*
G01X1982832Y1675000D02*
G03X1970505Y1673839I-6218J-0D01*
G01X1967242Y1575000D02*
X1967242D01*
X1967132Y1573839D02*
G03X1967242Y1575000I-6108J1161D01*
G01X1967132Y1573839D02*
G03X1967124Y1573746I492J-93D01*
G01Y1526254*
G03X1967132Y1526161I500J0*
G01X1954915D02*
G03X1967132I6109J-1161D01*
G01X1954915D02*
G03X1954923Y1526254I-492J93D01*
G01Y1573746*
G03X1954915Y1573839I-500J-0*
G01X1967242Y1575000D02*
G03X1954915Y1573839I-6218J-0D01*
G01X1967242Y1625000D02*
G03X1967242I-6218J0D01*
G01Y1675000D02*
G03X1967242I-6218J0D01*
G01X1931100Y1704799D02*
X2068900D01*
X1931100Y1703899D02*
X2068900D01*
X1931100Y1702999D02*
X2068900D01*
X1931100Y1702099D02*
X2068900D01*
X1931100Y1701199D02*
X2068900D01*
X1931100Y1700299D02*
X2068900D01*
X1931100Y1699399D02*
X2068900D01*
X1931100Y1698499D02*
X2068900D01*
X1931100Y1697599D02*
X2068900D01*
X1931100Y1696699D02*
X2068900D01*
X1931100Y1695799D02*
X2068900D01*
X1931100Y1694899D02*
X2068900D01*
X1931100Y1693999D02*
X2068900D01*
X1931100Y1693099D02*
X2068900D01*
X1931100Y1692199D02*
X2068900D01*
X1931100Y1691299D02*
X2068900D01*
X1931100Y1690399D02*
X2068900D01*
X1931100Y1689499D02*
X2068900D01*
X1931100Y1688599D02*
X2068900D01*
X1931100Y1687699D02*
X2068900D01*
X1931100Y1686799D02*
X2068900D01*
X1931100Y1685899D02*
X2068900D01*
X1931100Y1684999D02*
X2068900D01*
X1931100Y1684099D02*
X2068900D01*
X1931100Y1683199D02*
X2068900D01*
X1931100Y1682299D02*
X2068900D01*
X1931100Y1681399D02*
X2068900D01*
X2041880Y1680499D02*
X2068900D01*
X2043162Y1679599D02*
X2068900D01*
X2043975Y1678699D02*
X2068900D01*
X2044529Y1677799D02*
X2068900D01*
X2044897Y1676899D02*
X2068900D01*
X2045114Y1675999D02*
X2068900D01*
X2045194Y1675099D02*
X2068900D01*
X2045143Y1674199D02*
X2068900D01*
X2045076Y1673299D02*
X2068900D01*
X2045076Y1672399D02*
X2068900D01*
X2045076Y1671499D02*
X2068900D01*
X2045076Y1670599D02*
X2068900D01*
X2045076Y1669699D02*
X2068900D01*
X2045076Y1668799D02*
X2068900D01*
X2045076Y1667899D02*
X2068900D01*
X2045076Y1666999D02*
X2068900D01*
X2045076Y1666099D02*
X2068900D01*
X2045076Y1665199D02*
X2068900D01*
X2045076Y1664299D02*
X2068900D01*
X2045076Y1663399D02*
X2068900D01*
X2045076Y1662499D02*
X2068900D01*
X2045076Y1661599D02*
X2068900D01*
X2045076Y1660699D02*
X2068900D01*
X2045076Y1659799D02*
X2068900D01*
X2045076Y1658899D02*
X2068900D01*
X2045076Y1657999D02*
X2068900D01*
X2045076Y1657099D02*
X2068900D01*
X2045076Y1656199D02*
X2068900D01*
X2045076Y1655299D02*
X2068900D01*
X2045076Y1654399D02*
X2068900D01*
X2045076Y1653499D02*
X2068900D01*
X2045076Y1652599D02*
X2068900D01*
X2045076Y1651699D02*
X2068900D01*
X2045076Y1650799D02*
X2068900D01*
X2045076Y1649899D02*
X2068900D01*
X2045076Y1648999D02*
X2068900D01*
X2045076Y1648099D02*
X2068900D01*
X2045076Y1647199D02*
X2068900D01*
X2045076Y1646299D02*
X2068900D01*
X2045076Y1645399D02*
X2068900D01*
X2045076Y1644499D02*
X2068900D01*
X2045076Y1643599D02*
X2068900D01*
X2045076Y1642699D02*
X2068900D01*
X2045076Y1641799D02*
X2068900D01*
X2045076Y1640899D02*
X2068900D01*
X2045076Y1639999D02*
X2068900D01*
X2045076Y1639099D02*
X2068900D01*
X2045076Y1638199D02*
X2068900D01*
X2045076Y1637299D02*
X2068900D01*
X2045076Y1636399D02*
X2068900D01*
X2045076Y1635499D02*
X2068900D01*
X2045076Y1634599D02*
X2068900D01*
X2045076Y1633699D02*
X2068900D01*
X2045076Y1632799D02*
X2068900D01*
X2045076Y1631899D02*
X2068900D01*
X2045076Y1630999D02*
X2068900D01*
X2045076Y1630099D02*
X2068900D01*
X2045076Y1629199D02*
X2068900D01*
X2045076Y1628299D02*
X2068900D01*
X2045076Y1627399D02*
X2068900D01*
X2045076Y1626499D02*
X2068900D01*
X2045166Y1625599D02*
X2068900D01*
X2045187Y1624699D02*
X2068900D01*
X2045077Y1623799D02*
X2068900D01*
X2044829Y1622899D02*
X2068900D01*
X2044422Y1621999D02*
X2068900D01*
X2043818Y1621099D02*
X2068900D01*
X2042928Y1620199D02*
X2068900D01*
X2041458Y1619299D02*
X2068900D01*
X1931100Y1618399D02*
X2068900D01*
X1931100Y1617499D02*
X2068900D01*
X1931100Y1616599D02*
X2068900D01*
X1931100Y1615699D02*
X2068900D01*
X1931100Y1614799D02*
X2068900D01*
X1931100Y1613899D02*
X2068900D01*
X1931100Y1612999D02*
X2068900D01*
X1931100Y1612099D02*
X2068900D01*
X1931100Y1611199D02*
X2068900D01*
X1931100Y1610299D02*
X2068900D01*
X1931100Y1609399D02*
X2068900D01*
X1931100Y1608499D02*
X2068900D01*
X1931100Y1607599D02*
X2068900D01*
X1931100Y1606699D02*
X2068900D01*
X1931100Y1605799D02*
X2068900D01*
X1931100Y1604899D02*
X2068900D01*
X1931100Y1603999D02*
X2068900D01*
X1931100Y1603099D02*
X2068900D01*
X1931100Y1602199D02*
X2068900D01*
X1931100Y1601299D02*
X2068900D01*
X1931100Y1600399D02*
X2068900D01*
X1931100Y1599499D02*
X2068900D01*
X1931100Y1598599D02*
X2068900D01*
X1931100Y1597699D02*
X2068900D01*
X1931100Y1596799D02*
X2068900D01*
X1931100Y1595899D02*
X2068900D01*
X1931100Y1594999D02*
X2068900D01*
X1931100Y1594099D02*
X2068900D01*
X1931100Y1593199D02*
X2068900D01*
X1931100Y1592299D02*
X2068900D01*
X1931100Y1591399D02*
X2068900D01*
X1931100Y1590499D02*
X2068900D01*
X1931100Y1589599D02*
X2068900D01*
X1931100Y1588699D02*
X2068900D01*
X1931100Y1587799D02*
X2068900D01*
X1931100Y1586899D02*
X2068900D01*
X1931100Y1585999D02*
X2068900D01*
X1931100Y1585099D02*
X2068900D01*
X1931100Y1584199D02*
X2068900D01*
X1931100Y1583299D02*
X2068900D01*
X1931100Y1582399D02*
X2068900D01*
X1931100Y1581499D02*
X2068900D01*
X2041682Y1580599D02*
X2068900D01*
X2043049Y1579699D02*
X2068900D01*
X2043899Y1578799D02*
X2068900D01*
X2044477Y1577899D02*
X2068900D01*
X2044864Y1576999D02*
X2068900D01*
X2045097Y1576099D02*
X2068900D01*
X2045191Y1575199D02*
X2068900D01*
X2045155Y1574299D02*
X2068900D01*
X2045076Y1573399D02*
X2068900D01*
X2045076Y1572499D02*
X2068900D01*
X2045076Y1571599D02*
X2068900D01*
X2045076Y1570699D02*
X2068900D01*
X2045076Y1569799D02*
X2068900D01*
X2045076Y1568899D02*
X2068900D01*
X2045076Y1567999D02*
X2068900D01*
X2045076Y1567099D02*
X2068900D01*
X2045076Y1566199D02*
X2068900D01*
X2045076Y1565299D02*
X2068900D01*
X2045076Y1564399D02*
X2068900D01*
X2045076Y1563499D02*
X2068900D01*
X2045076Y1562599D02*
X2068900D01*
X2045076Y1561699D02*
X2068900D01*
X2045076Y1560799D02*
X2068900D01*
X2045076Y1559899D02*
X2068900D01*
X2045076Y1558999D02*
X2068900D01*
X2045076Y1558099D02*
X2068900D01*
X2045076Y1557199D02*
X2068900D01*
X2045076Y1556299D02*
X2068900D01*
X2045076Y1555399D02*
X2068900D01*
X2045076Y1554499D02*
X2068900D01*
X2045076Y1553599D02*
X2068900D01*
X2045076Y1552699D02*
X2068900D01*
X2045076Y1551799D02*
X2068900D01*
X2045076Y1550899D02*
X2068900D01*
X2045076Y1549999D02*
X2068900D01*
X2045076Y1549099D02*
X2068900D01*
X2045076Y1548199D02*
X2068900D01*
X2045076Y1547299D02*
X2068900D01*
X2045076Y1546399D02*
X2068900D01*
X2045076Y1545499D02*
X2068900D01*
X2045076Y1544599D02*
X2068900D01*
X2045076Y1543699D02*
X2068900D01*
X2045076Y1542799D02*
X2068900D01*
X2045076Y1541899D02*
X2068900D01*
X2045076Y1540999D02*
X2068900D01*
X2045076Y1540099D02*
X2068900D01*
X2045076Y1539199D02*
X2068900D01*
X2045076Y1538299D02*
X2068900D01*
X2045076Y1537399D02*
X2068900D01*
X2045076Y1536499D02*
X2068900D01*
X2045076Y1535599D02*
X2068900D01*
X2045076Y1534699D02*
X2068900D01*
X2045076Y1533799D02*
X2068900D01*
X2045076Y1532899D02*
X2068900D01*
X2045076Y1531999D02*
X2068900D01*
X2045076Y1531099D02*
X2068900D01*
X2045076Y1530199D02*
X2068900D01*
X2045076Y1529299D02*
X2068900D01*
X2045076Y1528399D02*
X2068900D01*
X2045076Y1527499D02*
X2068900D01*
X2045076Y1526599D02*
X2068900D01*
X2045155Y1525699D02*
X2068900D01*
X2045191Y1524799D02*
X2068900D01*
X2045096Y1523899D02*
X2068900D01*
X2044864Y1522999D02*
X2068900D01*
X2044476Y1522099D02*
X2068900D01*
X2043897Y1521199D02*
X2068900D01*
X2043046Y1520299D02*
X2068900D01*
X2041676Y1519399D02*
X2068900D01*
X1931100Y1518499D02*
X2068900D01*
X1931100Y1517599D02*
X2068900D01*
X1931100Y1516699D02*
X2068900D01*
X1931100Y1515799D02*
X2068900D01*
X1931100Y1514899D02*
X2068900D01*
X1931100Y1513999D02*
X2068900D01*
X1931100Y1513099D02*
X2068900D01*
X1931100Y1512199D02*
X2068900D01*
X1931100Y1511299D02*
X2068900D01*
X1931100Y1510399D02*
X2068900D01*
X1931100Y1509499D02*
X2068900D01*
X1931100Y1508599D02*
X2068900D01*
X1931100Y1507699D02*
X2068900D01*
X1931100Y1506799D02*
X2068900D01*
X1931100Y1505899D02*
X2068900D01*
X1931100Y1504999D02*
X2068900D01*
X1931100Y1504099D02*
X2068900D01*
X1931100Y1503199D02*
X2068900D01*
X1931100Y1502299D02*
X2068900D01*
X1931100Y1501399D02*
X2068900D01*
X1931100Y1500499D02*
X2068900D01*
X1931100Y1499599D02*
X2068900D01*
X1931100Y1498699D02*
X2068900D01*
X1931100Y1497799D02*
X2068900D01*
X1931100Y1496899D02*
X2068900D01*
X1931100Y1495999D02*
X2068900D01*
X1931100Y1495099D02*
X2068900D01*
X1931127Y1705699D02*
X2068873D01*
X1931136Y1494199D02*
X2068864D01*
X1931245Y1706599D02*
X2068755D01*
X1931264Y1493299D02*
X2068736D01*
X1931458Y1707499D02*
X2068542D01*
X1931489Y1492399D02*
X2068511D01*
X1931775Y1708399D02*
X2068225D01*
X1931818Y1491499D02*
X2068182D01*
X1932207Y1709299D02*
X2067793D01*
X1932264Y1490599D02*
X2067736D01*
X1932776Y1710199D02*
X2067224D01*
X1932851Y1489699D02*
X2067149D01*
X1933518Y1711099D02*
X2066482D01*
X1933616Y1488799D02*
X2066384D01*
X1934502Y1711999D02*
X2065498D01*
X1934635Y1487899D02*
X2065365D01*
X1935899Y1712899D02*
X2064101D01*
X1936103Y1486999D02*
X2063897D01*
X1938661Y1713799D02*
X2061339D01*
X2025868Y1619299D02*
X2036494D01*
X2026086Y1519399D02*
X2036276D01*
X2026091Y1580599D02*
X2036271D01*
X2026289Y1680499D02*
X2036073D01*
X2027337Y1620199D02*
X2035025D01*
X2027455Y1520299D02*
X2034907D01*
X2027458Y1579699D02*
X2034904D01*
X2027571Y1679599D02*
X2034791D01*
X2028228Y1621099D02*
X2034134D01*
X2028307Y1521199D02*
X2034055D01*
X2028309Y1578799D02*
X2034053D01*
X2028384Y1678699D02*
X2033978D01*
X2028832Y1621999D02*
X2033530D01*
X2028885Y1522099D02*
X2033477D01*
X2028887Y1577899D02*
X2033475D01*
X2028938Y1677799D02*
X2033424D01*
X2029238Y1622899D02*
X2033124D01*
X2029273Y1522999D02*
X2033089D01*
X2029274Y1576999D02*
X2033088D01*
X2029307Y1676899D02*
X2033055D01*
X2029486Y1673299D02*
X2032876D01*
X2029486Y1672399D02*
X2032876D01*
X2029486Y1671499D02*
X2032876D01*
X2029486Y1670599D02*
X2032876D01*
X2029486Y1669699D02*
X2032876D01*
X2029486Y1668799D02*
X2032876D01*
X2029486Y1667899D02*
X2032876D01*
X2029486Y1666999D02*
X2032876D01*
X2029486Y1666099D02*
X2032876D01*
X2029486Y1665199D02*
X2032876D01*
X2029486Y1664299D02*
X2032876D01*
X2029486Y1663399D02*
X2032876D01*
X2029486Y1662499D02*
X2032876D01*
X2029486Y1661599D02*
X2032876D01*
X2029486Y1660699D02*
X2032876D01*
X2029486Y1659799D02*
X2032876D01*
X2029486Y1658899D02*
X2032876D01*
X2029486Y1657999D02*
X2032876D01*
X2029486Y1657099D02*
X2032876D01*
X2029486Y1656199D02*
X2032876D01*
X2029486Y1655299D02*
X2032876D01*
X2029486Y1654399D02*
X2032876D01*
X2029486Y1653499D02*
X2032876D01*
X2029486Y1652599D02*
X2032876D01*
X2029486Y1651699D02*
X2032876D01*
X2029486Y1650799D02*
X2032876D01*
X2029486Y1649899D02*
X2032876D01*
X2029486Y1648999D02*
X2032876D01*
X2029486Y1648099D02*
X2032876D01*
X2029486Y1647199D02*
X2032876D01*
X2029486Y1646299D02*
X2032876D01*
X2029486Y1645399D02*
X2032876D01*
X2029486Y1644499D02*
X2032876D01*
X2029486Y1643599D02*
X2032876D01*
X2029486Y1642699D02*
X2032876D01*
X2029486Y1641799D02*
X2032876D01*
X2029486Y1640899D02*
X2032876D01*
X2029486Y1639999D02*
X2032876D01*
X2029486Y1639099D02*
X2032876D01*
X2029486Y1638199D02*
X2032876D01*
X2029486Y1637299D02*
X2032876D01*
X2029486Y1636399D02*
X2032876D01*
X2029486Y1635499D02*
X2032876D01*
X2029486Y1634599D02*
X2032876D01*
X2029486Y1633699D02*
X2032876D01*
X2029486Y1632799D02*
X2032876D01*
X2029486Y1631899D02*
X2032876D01*
X2029486Y1630999D02*
X2032876D01*
X2029486Y1630099D02*
X2032876D01*
X2029486Y1629199D02*
X2032876D01*
X2029486Y1628299D02*
X2032876D01*
X2029486Y1627399D02*
X2032876D01*
X2029486Y1626499D02*
X2032876D01*
X2029486Y1573399D02*
X2032876D01*
X2029486Y1572499D02*
X2032876D01*
X2029486Y1571599D02*
X2032876D01*
X2029486Y1570699D02*
X2032876D01*
X2029486Y1569799D02*
X2032876D01*
X2029486Y1568899D02*
X2032876D01*
X2029486Y1567999D02*
X2032876D01*
X2029486Y1567099D02*
X2032876D01*
X2029486Y1566199D02*
X2032876D01*
X2029486Y1565299D02*
X2032876D01*
X2029486Y1564399D02*
X2032876D01*
X2029486Y1563499D02*
X2032876D01*
X2029486Y1562599D02*
X2032876D01*
X2029486Y1561699D02*
X2032876D01*
X2029486Y1560799D02*
X2032876D01*
X2029486Y1559899D02*
X2032876D01*
X2029486Y1558999D02*
X2032876D01*
X2029486Y1558099D02*
X2032876D01*
X2029486Y1557199D02*
X2032876D01*
X2029486Y1556299D02*
X2032876D01*
X2029486Y1555399D02*
X2032876D01*
X2029486Y1554499D02*
X2032876D01*
X2029486Y1553599D02*
X2032876D01*
X2029486Y1552699D02*
X2032876D01*
X2029486Y1551799D02*
X2032876D01*
X2029486Y1550899D02*
X2032876D01*
X2029486Y1549999D02*
X2032876D01*
X2029486Y1549099D02*
X2032876D01*
X2029486Y1548199D02*
X2032876D01*
X2029486Y1547299D02*
X2032876D01*
X2029486Y1546399D02*
X2032876D01*
X2029486Y1545499D02*
X2032876D01*
X2029486Y1544599D02*
X2032876D01*
X2029486Y1543699D02*
X2032876D01*
X2029486Y1542799D02*
X2032876D01*
X2029486Y1541899D02*
X2032876D01*
X2029486Y1540999D02*
X2032876D01*
X2029486Y1540099D02*
X2032876D01*
X2029486Y1539199D02*
X2032876D01*
X2029486Y1538299D02*
X2032876D01*
X2029486Y1537399D02*
X2032876D01*
X2029486Y1536499D02*
X2032876D01*
X2029486Y1535599D02*
X2032876D01*
X2029486Y1534699D02*
X2032876D01*
X2029486Y1533799D02*
X2032876D01*
X2029486Y1532899D02*
X2032876D01*
X2029486Y1531999D02*
X2032876D01*
X2029486Y1531099D02*
X2032876D01*
X2029486Y1530199D02*
X2032876D01*
X2029486Y1529299D02*
X2032876D01*
X2029486Y1528399D02*
X2032876D01*
X2029486Y1527499D02*
X2032876D01*
X2029486Y1526599D02*
X2032876D01*
X2029487Y1623799D02*
X2032875D01*
X2029506Y1523899D02*
X2032856D01*
X2029506Y1576099D02*
X2032856D01*
X2029523Y1675999D02*
X2032839D01*
X2029552Y1674199D02*
X2032810D01*
X2029564Y1574299D02*
X2032798D01*
X2029564Y1525699D02*
X2032798D01*
X2029575Y1625599D02*
X2032787D01*
X2029597Y1624699D02*
X2032765D01*
X2029601Y1524799D02*
X2032761D01*
X2029601Y1575199D02*
X2032761D01*
X2029603Y1675099D02*
X2032759D01*
X2010277Y1619299D02*
X2020904D01*
X2010495Y1519399D02*
X2020686D01*
X2010501Y1580599D02*
X2020680D01*
X2010699Y1680499D02*
X2020482D01*
X2011746Y1620199D02*
X2019434D01*
X2011865Y1520299D02*
X2019316D01*
X2011868Y1579699D02*
X2019313D01*
X2011981Y1679599D02*
X2019200D01*
X2012637Y1621099D02*
X2018544D01*
X2012716Y1521199D02*
X2018465D01*
X2012718Y1578799D02*
X2018463D01*
X2012794Y1678699D02*
X2018387D01*
X2013241Y1621999D02*
X2017940D01*
X2013295Y1522099D02*
X2017886D01*
X2013296Y1577899D02*
X2017885D01*
X2013348Y1677799D02*
X2017833D01*
X2013648Y1622899D02*
X2017533D01*
X2013682Y1522999D02*
X2017498D01*
X2013683Y1576999D02*
X2017498D01*
X2013716Y1676899D02*
X2017465D01*
X2013895Y1673299D02*
X2017286D01*
X2013895Y1672399D02*
X2017286D01*
X2013895Y1671499D02*
X2017286D01*
X2013895Y1670599D02*
X2017286D01*
X2013895Y1669699D02*
X2017286D01*
X2013895Y1668799D02*
X2017286D01*
X2013895Y1667899D02*
X2017286D01*
X2013895Y1666999D02*
X2017286D01*
X2013895Y1666099D02*
X2017286D01*
X2013895Y1665199D02*
X2017286D01*
X2013895Y1664299D02*
X2017286D01*
X2013895Y1663399D02*
X2017286D01*
X2013895Y1662499D02*
X2017286D01*
X2013895Y1661599D02*
X2017286D01*
X2013895Y1660699D02*
X2017286D01*
X2013895Y1659799D02*
X2017286D01*
X2013895Y1658899D02*
X2017286D01*
X2013895Y1657999D02*
X2017286D01*
X2013895Y1657099D02*
X2017286D01*
X2013895Y1656199D02*
X2017286D01*
X2013895Y1655299D02*
X2017286D01*
X2013895Y1654399D02*
X2017286D01*
X2013895Y1653499D02*
X2017286D01*
X2013895Y1652599D02*
X2017286D01*
X2013895Y1651699D02*
X2017286D01*
X2013895Y1650799D02*
X2017286D01*
X2013895Y1649899D02*
X2017286D01*
X2013895Y1648999D02*
X2017286D01*
X2013895Y1648099D02*
X2017286D01*
X2013895Y1647199D02*
X2017286D01*
X2013895Y1646299D02*
X2017286D01*
X2013895Y1645399D02*
X2017286D01*
X2013895Y1644499D02*
X2017286D01*
X2013895Y1643599D02*
X2017286D01*
X2013895Y1642699D02*
X2017286D01*
X2013895Y1641799D02*
X2017286D01*
X2013895Y1640899D02*
X2017286D01*
X2013895Y1639999D02*
X2017286D01*
X2013895Y1639099D02*
X2017286D01*
X2013895Y1638199D02*
X2017286D01*
X2013895Y1637299D02*
X2017286D01*
X2013895Y1636399D02*
X2017286D01*
X2013895Y1635499D02*
X2017286D01*
X2013895Y1634599D02*
X2017286D01*
X2013895Y1633699D02*
X2017286D01*
X2013895Y1632799D02*
X2017286D01*
X2013895Y1631899D02*
X2017286D01*
X2013895Y1630999D02*
X2017286D01*
X2013895Y1630099D02*
X2017286D01*
X2013895Y1629199D02*
X2017286D01*
X2013895Y1628299D02*
X2017286D01*
X2013895Y1627399D02*
X2017286D01*
X2013895Y1626499D02*
X2017286D01*
X2013895Y1573399D02*
X2017286D01*
X2013895Y1572499D02*
X2017286D01*
X2013895Y1571599D02*
X2017286D01*
X2013895Y1570699D02*
X2017286D01*
X2013895Y1569799D02*
X2017286D01*
X2013895Y1568899D02*
X2017286D01*
X2013895Y1567999D02*
X2017286D01*
X2013895Y1567099D02*
X2017286D01*
X2013895Y1566199D02*
X2017286D01*
X2013895Y1565299D02*
X2017286D01*
X2013895Y1564399D02*
X2017286D01*
X2013895Y1563499D02*
X2017286D01*
X2013895Y1562599D02*
X2017286D01*
X2013895Y1561699D02*
X2017286D01*
X2013895Y1560799D02*
X2017286D01*
X2013895Y1559899D02*
X2017286D01*
X2013895Y1558999D02*
X2017286D01*
X2013895Y1558099D02*
X2017286D01*
X2013895Y1557199D02*
X2017286D01*
X2013895Y1556299D02*
X2017286D01*
X2013895Y1555399D02*
X2017286D01*
X2013895Y1554499D02*
X2017286D01*
X2013895Y1553599D02*
X2017286D01*
X2013895Y1552699D02*
X2017286D01*
X2013895Y1551799D02*
X2017286D01*
X2013895Y1550899D02*
X2017286D01*
X2013895Y1549999D02*
X2017286D01*
X2013895Y1549099D02*
X2017286D01*
X2013895Y1548199D02*
X2017286D01*
X2013895Y1547299D02*
X2017286D01*
X2013895Y1546399D02*
X2017286D01*
X2013895Y1545499D02*
X2017286D01*
X2013895Y1544599D02*
X2017286D01*
X2013895Y1543699D02*
X2017286D01*
X2013895Y1542799D02*
X2017286D01*
X2013895Y1541899D02*
X2017286D01*
X2013895Y1540999D02*
X2017286D01*
X2013895Y1540099D02*
X2017286D01*
X2013895Y1539199D02*
X2017286D01*
X2013895Y1538299D02*
X2017286D01*
X2013895Y1537399D02*
X2017286D01*
X2013895Y1536499D02*
X2017286D01*
X2013895Y1535599D02*
X2017286D01*
X2013895Y1534699D02*
X2017286D01*
X2013895Y1533799D02*
X2017286D01*
X2013895Y1532899D02*
X2017286D01*
X2013895Y1531999D02*
X2017286D01*
X2013895Y1531099D02*
X2017286D01*
X2013895Y1530199D02*
X2017286D01*
X2013895Y1529299D02*
X2017286D01*
X2013895Y1528399D02*
X2017286D01*
X2013895Y1527499D02*
X2017286D01*
X2013895Y1526599D02*
X2017286D01*
X2013896Y1623799D02*
X2017285D01*
X2013915Y1523899D02*
X2017266D01*
X2013915Y1576099D02*
X2017265D01*
X2013933Y1675999D02*
X2017248D01*
X2013961Y1674199D02*
X2017219D01*
X2013974Y1574299D02*
X2017207D01*
X2013974Y1525699D02*
X2017207D01*
X2013984Y1625599D02*
X2017196D01*
X2014006Y1624699D02*
X2017175D01*
X2014010Y1524799D02*
X2017171D01*
X2014010Y1575199D02*
X2017171D01*
X2014013Y1675099D02*
X2017168D01*
X1994687Y1619299D02*
X2005313D01*
X1994905Y1519399D02*
X2005095D01*
X1994910Y1580599D02*
X2005090D01*
X1995108Y1680499D02*
X2004892D01*
X1996156Y1620199D02*
X2003844D01*
X1996274Y1520299D02*
X2003725D01*
X1996277Y1579699D02*
X2003722D01*
X1996390Y1679599D02*
X2003610D01*
X1997047Y1621099D02*
X2002953D01*
X1997125Y1521199D02*
X2002874D01*
X1997127Y1578799D02*
X2002872D01*
X1997203Y1678699D02*
X2002797D01*
X1997650Y1621999D02*
X2002349D01*
X1997704Y1522099D02*
X2002295D01*
X1997706Y1577899D02*
X2002294D01*
X1997757Y1677799D02*
X2002243D01*
X1998057Y1622899D02*
X2001943D01*
X1998092Y1522999D02*
X2001908D01*
X1998093Y1576999D02*
X2001907D01*
X1998126Y1676899D02*
X2001874D01*
X1998305Y1673299D02*
X2001695D01*
X1998305Y1672399D02*
X2001695D01*
X1998305Y1671499D02*
X2001695D01*
X1998305Y1670599D02*
X2001695D01*
X1998305Y1669699D02*
X2001695D01*
X1998305Y1668799D02*
X2001695D01*
X1998305Y1667899D02*
X2001695D01*
X1998305Y1666999D02*
X2001695D01*
X1998305Y1666099D02*
X2001695D01*
X1998305Y1665199D02*
X2001695D01*
X1998305Y1664299D02*
X2001695D01*
X1998305Y1663399D02*
X2001695D01*
X1998305Y1662499D02*
X2001695D01*
X1998305Y1661599D02*
X2001695D01*
X1998305Y1660699D02*
X2001695D01*
X1998305Y1659799D02*
X2001695D01*
X1998305Y1658899D02*
X2001695D01*
X1998305Y1657999D02*
X2001695D01*
X1998305Y1657099D02*
X2001695D01*
X1998305Y1656199D02*
X2001695D01*
X1998305Y1655299D02*
X2001695D01*
X1998305Y1654399D02*
X2001695D01*
X1998305Y1653499D02*
X2001695D01*
X1998305Y1652599D02*
X2001695D01*
X1998305Y1651699D02*
X2001695D01*
X1998305Y1650799D02*
X2001695D01*
X1998305Y1649899D02*
X2001695D01*
X1998305Y1648999D02*
X2001695D01*
X1998305Y1648099D02*
X2001695D01*
X1998305Y1647199D02*
X2001695D01*
X1998305Y1646299D02*
X2001695D01*
X1998305Y1645399D02*
X2001695D01*
X1998305Y1644499D02*
X2001695D01*
X1998305Y1643599D02*
X2001695D01*
X1998305Y1642699D02*
X2001695D01*
X1998305Y1641799D02*
X2001695D01*
X1998305Y1640899D02*
X2001695D01*
X1998305Y1639999D02*
X2001695D01*
X1998305Y1639099D02*
X2001695D01*
X1998305Y1638199D02*
X2001695D01*
X1998305Y1637299D02*
X2001695D01*
X1998305Y1636399D02*
X2001695D01*
X1998305Y1635499D02*
X2001695D01*
X1998305Y1634599D02*
X2001695D01*
X1998305Y1633699D02*
X2001695D01*
X1998305Y1632799D02*
X2001695D01*
X1998305Y1631899D02*
X2001695D01*
X1998305Y1630999D02*
X2001695D01*
X1998305Y1630099D02*
X2001695D01*
X1998305Y1629199D02*
X2001695D01*
X1998305Y1628299D02*
X2001695D01*
X1998305Y1627399D02*
X2001695D01*
X1998305Y1626499D02*
X2001695D01*
X1998305Y1573399D02*
X2001695D01*
X1998305Y1572499D02*
X2001695D01*
X1998305Y1571599D02*
X2001695D01*
X1998305Y1570699D02*
X2001695D01*
X1998305Y1569799D02*
X2001695D01*
X1998305Y1568899D02*
X2001695D01*
X1998305Y1567999D02*
X2001695D01*
X1998305Y1567099D02*
X2001695D01*
X1998305Y1566199D02*
X2001695D01*
X1998305Y1565299D02*
X2001695D01*
X1998305Y1564399D02*
X2001695D01*
X1998305Y1563499D02*
X2001695D01*
X1998305Y1562599D02*
X2001695D01*
X1998305Y1561699D02*
X2001695D01*
X1998305Y1560799D02*
X2001695D01*
X1998305Y1559899D02*
X2001695D01*
X1998305Y1558999D02*
X2001695D01*
X1998305Y1558099D02*
X2001695D01*
X1998305Y1557199D02*
X2001695D01*
X1998305Y1556299D02*
X2001695D01*
X1998305Y1555399D02*
X2001695D01*
X1998305Y1554499D02*
X2001695D01*
X1998305Y1553599D02*
X2001695D01*
X1998305Y1552699D02*
X2001695D01*
X1998305Y1551799D02*
X2001695D01*
X1998305Y1550899D02*
X2001695D01*
X1998305Y1549999D02*
X2001695D01*
X1998305Y1549099D02*
X2001695D01*
X1998305Y1548199D02*
X2001695D01*
X1998305Y1547299D02*
X2001695D01*
X1998305Y1546399D02*
X2001695D01*
X1998305Y1545499D02*
X2001695D01*
X1998305Y1544599D02*
X2001695D01*
X1998305Y1543699D02*
X2001695D01*
X1998305Y1542799D02*
X2001695D01*
X1998305Y1541899D02*
X2001695D01*
X1998305Y1540999D02*
X2001695D01*
X1998305Y1540099D02*
X2001695D01*
X1998305Y1539199D02*
X2001695D01*
X1998305Y1538299D02*
X2001695D01*
X1998305Y1537399D02*
X2001695D01*
X1998305Y1536499D02*
X2001695D01*
X1998305Y1535599D02*
X2001695D01*
X1998305Y1534699D02*
X2001695D01*
X1998305Y1533799D02*
X2001695D01*
X1998305Y1532899D02*
X2001695D01*
X1998305Y1531999D02*
X2001695D01*
X1998305Y1531099D02*
X2001695D01*
X1998305Y1530199D02*
X2001695D01*
X1998305Y1529299D02*
X2001695D01*
X1998305Y1528399D02*
X2001695D01*
X1998305Y1527499D02*
X2001695D01*
X1998305Y1526599D02*
X2001695D01*
X1998306Y1623799D02*
X2001694D01*
X1998324Y1523899D02*
X2001675D01*
X1998325Y1576099D02*
X2001675D01*
X1998342Y1675999D02*
X2001658D01*
X1998371Y1674199D02*
X2001629D01*
X1998383Y1574299D02*
X2001617D01*
X1998383Y1525699D02*
X2001616D01*
X1998394Y1625599D02*
X2001606D01*
X1998415Y1624699D02*
X2001584D01*
X1998419Y1524799D02*
X2001580D01*
X1998420Y1575199D02*
X2001580D01*
X1998422Y1675099D02*
X2001578D01*
X1979096Y1619299D02*
X1989723D01*
X1979314Y1519399D02*
X1989505D01*
X1979320Y1580599D02*
X1989499D01*
X1979517Y1680499D02*
X1989301D01*
X1980565Y1620199D02*
X1988253D01*
X1980684Y1520299D02*
X1988135D01*
X1980687Y1579699D02*
X1988132D01*
X1980799Y1679599D02*
X1988019D01*
X1981456Y1621099D02*
X1987363D01*
X1981535Y1521199D02*
X1987284D01*
X1981537Y1578799D02*
X1987282D01*
X1981613Y1678699D02*
X1987206D01*
X1982060Y1621999D02*
X1986759D01*
X1982114Y1522099D02*
X1986705D01*
X1982115Y1577899D02*
X1986703D01*
X1982167Y1677799D02*
X1986652D01*
X1982466Y1622899D02*
X1986352D01*
X1982501Y1522999D02*
X1986317D01*
X1982502Y1576999D02*
X1986316D01*
X1982535Y1676899D02*
X1986283D01*
X1982714Y1673299D02*
X1986105D01*
X1982714Y1672399D02*
X1986105D01*
X1982714Y1671499D02*
X1986105D01*
X1982714Y1670599D02*
X1986105D01*
X1982714Y1669699D02*
X1986105D01*
X1982714Y1668799D02*
X1986105D01*
X1982714Y1667899D02*
X1986105D01*
X1982714Y1666999D02*
X1986105D01*
X1982714Y1666099D02*
X1986105D01*
X1982714Y1665199D02*
X1986105D01*
X1982714Y1664299D02*
X1986105D01*
X1982714Y1663399D02*
X1986105D01*
X1982714Y1662499D02*
X1986105D01*
X1982714Y1661599D02*
X1986105D01*
X1982714Y1660699D02*
X1986105D01*
X1982714Y1659799D02*
X1986105D01*
X1982714Y1658899D02*
X1986105D01*
X1982714Y1657999D02*
X1986105D01*
X1982714Y1657099D02*
X1986105D01*
X1982714Y1656199D02*
X1986105D01*
X1982714Y1655299D02*
X1986105D01*
X1982714Y1654399D02*
X1986105D01*
X1982714Y1653499D02*
X1986105D01*
X1982714Y1652599D02*
X1986105D01*
X1982714Y1651699D02*
X1986105D01*
X1982714Y1650799D02*
X1986105D01*
X1982714Y1649899D02*
X1986105D01*
X1982714Y1648999D02*
X1986105D01*
X1982714Y1648099D02*
X1986105D01*
X1982714Y1647199D02*
X1986105D01*
X1982714Y1646299D02*
X1986105D01*
X1982714Y1645399D02*
X1986105D01*
X1982714Y1644499D02*
X1986105D01*
X1982714Y1643599D02*
X1986105D01*
X1982714Y1642699D02*
X1986105D01*
X1982714Y1641799D02*
X1986105D01*
X1982714Y1640899D02*
X1986105D01*
X1982714Y1639999D02*
X1986105D01*
X1982714Y1639099D02*
X1986105D01*
X1982714Y1638199D02*
X1986105D01*
X1982714Y1637299D02*
X1986105D01*
X1982714Y1636399D02*
X1986105D01*
X1982714Y1635499D02*
X1986105D01*
X1982714Y1634599D02*
X1986105D01*
X1982714Y1633699D02*
X1986105D01*
X1982714Y1632799D02*
X1986105D01*
X1982714Y1631899D02*
X1986105D01*
X1982714Y1630999D02*
X1986105D01*
X1982714Y1630099D02*
X1986105D01*
X1982714Y1629199D02*
X1986105D01*
X1982714Y1628299D02*
X1986105D01*
X1982714Y1627399D02*
X1986105D01*
X1982714Y1626499D02*
X1986105D01*
X1982714Y1573399D02*
X1986105D01*
X1982714Y1572499D02*
X1986105D01*
X1982714Y1571599D02*
X1986105D01*
X1982714Y1570699D02*
X1986105D01*
X1982714Y1569799D02*
X1986105D01*
X1982714Y1568899D02*
X1986105D01*
X1982714Y1567999D02*
X1986105D01*
X1982714Y1567099D02*
X1986105D01*
X1982714Y1566199D02*
X1986105D01*
X1982714Y1565299D02*
X1986105D01*
X1982714Y1564399D02*
X1986105D01*
X1982714Y1563499D02*
X1986105D01*
X1982714Y1562599D02*
X1986105D01*
X1982714Y1561699D02*
X1986105D01*
X1982714Y1560799D02*
X1986105D01*
X1982714Y1559899D02*
X1986105D01*
X1982714Y1558999D02*
X1986105D01*
X1982714Y1558099D02*
X1986105D01*
X1982714Y1557199D02*
X1986105D01*
X1982714Y1556299D02*
X1986105D01*
X1982714Y1555399D02*
X1986105D01*
X1982714Y1554499D02*
X1986105D01*
X1982714Y1553599D02*
X1986105D01*
X1982714Y1552699D02*
X1986105D01*
X1982714Y1551799D02*
X1986105D01*
X1982714Y1550899D02*
X1986105D01*
X1982714Y1549999D02*
X1986105D01*
X1982714Y1549099D02*
X1986105D01*
X1982714Y1548199D02*
X1986105D01*
X1982714Y1547299D02*
X1986105D01*
X1982714Y1546399D02*
X1986105D01*
X1982714Y1545499D02*
X1986105D01*
X1982714Y1544599D02*
X1986105D01*
X1982714Y1543699D02*
X1986105D01*
X1982714Y1542799D02*
X1986105D01*
X1982714Y1541899D02*
X1986105D01*
X1982714Y1540999D02*
X1986105D01*
X1982714Y1540099D02*
X1986105D01*
X1982714Y1539199D02*
X1986105D01*
X1982714Y1538299D02*
X1986105D01*
X1982714Y1537399D02*
X1986105D01*
X1982714Y1536499D02*
X1986105D01*
X1982714Y1535599D02*
X1986105D01*
X1982714Y1534699D02*
X1986105D01*
X1982714Y1533799D02*
X1986105D01*
X1982714Y1532899D02*
X1986105D01*
X1982714Y1531999D02*
X1986105D01*
X1982714Y1531099D02*
X1986105D01*
X1982714Y1530199D02*
X1986105D01*
X1982714Y1529299D02*
X1986105D01*
X1982714Y1528399D02*
X1986105D01*
X1982714Y1527499D02*
X1986105D01*
X1982714Y1526599D02*
X1986105D01*
X1982715Y1623799D02*
X1986104D01*
X1982734Y1523899D02*
X1986085D01*
X1982734Y1576099D02*
X1986084D01*
X1982751Y1675999D02*
X1986067D01*
X1982780Y1674199D02*
X1986038D01*
X1982793Y1574299D02*
X1986026D01*
X1982793Y1525699D02*
X1986026D01*
X1982803Y1625599D02*
X1986015D01*
X1982825Y1624699D02*
X1985994D01*
X1982829Y1524799D02*
X1985990D01*
X1982829Y1575199D02*
X1985990D01*
X1982831Y1675099D02*
X1985987D01*
X1963505Y1619299D02*
X1974132D01*
X1963724Y1519399D02*
X1973914D01*
X1963729Y1580599D02*
X1973909D01*
X1963927Y1680499D02*
X1973711D01*
X1964975Y1620199D02*
X1972663D01*
X1965093Y1520299D02*
X1972544D01*
X1965096Y1579699D02*
X1972541D01*
X1965209Y1679599D02*
X1972429D01*
X1965866Y1621099D02*
X1971772D01*
X1965944Y1521199D02*
X1971693D01*
X1965946Y1578799D02*
X1971691D01*
X1966022Y1678699D02*
X1971616D01*
X1966469Y1621999D02*
X1971168D01*
X1966523Y1522099D02*
X1971114D01*
X1966525Y1577899D02*
X1971113D01*
X1966576Y1677799D02*
X1971061D01*
X1966876Y1622899D02*
X1970762D01*
X1966911Y1522999D02*
X1970727D01*
X1966912Y1576999D02*
X1970726D01*
X1966945Y1676899D02*
X1970693D01*
X1967004Y1673299D02*
X1970514D01*
X1966671Y1672399D02*
X1970514D01*
X1966162Y1671499D02*
X1970514D01*
X1965416Y1670599D02*
X1970514D01*
X1964273Y1669699D02*
X1970514D01*
X1961481Y1668799D02*
X1970514D01*
X1931100Y1667899D02*
X1970514D01*
X1931100Y1666999D02*
X1970514D01*
X1931100Y1666099D02*
X1970514D01*
X1931100Y1665199D02*
X1970514D01*
X1931100Y1664299D02*
X1970514D01*
X1931100Y1663399D02*
X1970514D01*
X1931100Y1662499D02*
X1970514D01*
X1931100Y1661599D02*
X1970514D01*
X1931100Y1660699D02*
X1970514D01*
X1931100Y1659799D02*
X1970514D01*
X1931100Y1658899D02*
X1970514D01*
X1931100Y1657999D02*
X1970514D01*
X1931100Y1657099D02*
X1970514D01*
X1931100Y1656199D02*
X1970514D01*
X1931100Y1655299D02*
X1970514D01*
X1931100Y1654399D02*
X1970514D01*
X1931100Y1653499D02*
X1970514D01*
X1931100Y1652599D02*
X1970514D01*
X1931100Y1651699D02*
X1970514D01*
X1931100Y1650799D02*
X1970514D01*
X1931100Y1649899D02*
X1970514D01*
X1931100Y1648999D02*
X1970514D01*
X1931100Y1648099D02*
X1970514D01*
X1931100Y1647199D02*
X1970514D01*
X1931100Y1646299D02*
X1970514D01*
X1931100Y1645399D02*
X1970514D01*
X1931100Y1644499D02*
X1970514D01*
X1931100Y1643599D02*
X1970514D01*
X1931100Y1642699D02*
X1970514D01*
X1931100Y1641799D02*
X1970514D01*
X1931100Y1640899D02*
X1970514D01*
X1931100Y1639999D02*
X1970514D01*
X1931100Y1639099D02*
X1970514D01*
X1931100Y1638199D02*
X1970514D01*
X1931100Y1637299D02*
X1970514D01*
X1931100Y1636399D02*
X1970514D01*
X1931100Y1635499D02*
X1970514D01*
X1931100Y1634599D02*
X1970514D01*
X1931100Y1633699D02*
X1970514D01*
X1931100Y1632799D02*
X1970514D01*
X1931100Y1631899D02*
X1970514D01*
X1962661Y1630999D02*
X1970514D01*
X1964583Y1630099D02*
X1970514D01*
X1965610Y1629199D02*
X1970514D01*
X1966295Y1628299D02*
X1970514D01*
X1966760Y1627399D02*
X1970514D01*
X1967058Y1626499D02*
X1970514D01*
X1967124Y1573399D02*
X1970514D01*
X1967124Y1572499D02*
X1970514D01*
X1967124Y1571599D02*
X1970514D01*
X1967124Y1570699D02*
X1970514D01*
X1967124Y1569799D02*
X1970514D01*
X1967124Y1568899D02*
X1970514D01*
X1967124Y1567999D02*
X1970514D01*
X1967124Y1567099D02*
X1970514D01*
X1967124Y1566199D02*
X1970514D01*
X1967124Y1565299D02*
X1970514D01*
X1967124Y1564399D02*
X1970514D01*
X1967124Y1563499D02*
X1970514D01*
X1967124Y1562599D02*
X1970514D01*
X1967124Y1561699D02*
X1970514D01*
X1967124Y1560799D02*
X1970514D01*
X1967124Y1559899D02*
X1970514D01*
X1967124Y1558999D02*
X1970514D01*
X1967124Y1558099D02*
X1970514D01*
X1967124Y1557199D02*
X1970514D01*
X1967124Y1556299D02*
X1970514D01*
X1967124Y1555399D02*
X1970514D01*
X1967124Y1554499D02*
X1970514D01*
X1967124Y1553599D02*
X1970514D01*
X1967124Y1552699D02*
X1970514D01*
X1967124Y1551799D02*
X1970514D01*
X1967124Y1550899D02*
X1970514D01*
X1967124Y1549999D02*
X1970514D01*
X1967124Y1549099D02*
X1970514D01*
X1967124Y1548199D02*
X1970514D01*
X1967124Y1547299D02*
X1970514D01*
X1967124Y1546399D02*
X1970514D01*
X1967124Y1545499D02*
X1970514D01*
X1967124Y1544599D02*
X1970514D01*
X1967124Y1543699D02*
X1970514D01*
X1967124Y1542799D02*
X1970514D01*
X1967124Y1541899D02*
X1970514D01*
X1967124Y1540999D02*
X1970514D01*
X1967124Y1540099D02*
X1970514D01*
X1967124Y1539199D02*
X1970514D01*
X1967124Y1538299D02*
X1970514D01*
X1967124Y1537399D02*
X1970514D01*
X1967124Y1536499D02*
X1970514D01*
X1967124Y1535599D02*
X1970514D01*
X1967124Y1534699D02*
X1970514D01*
X1967124Y1533799D02*
X1970514D01*
X1967124Y1532899D02*
X1970514D01*
X1967124Y1531999D02*
X1970514D01*
X1967124Y1531099D02*
X1970514D01*
X1967124Y1530199D02*
X1970514D01*
X1967124Y1529299D02*
X1970514D01*
X1967124Y1528399D02*
X1970514D01*
X1967124Y1527499D02*
X1970514D01*
X1967124Y1526599D02*
X1970514D01*
X1967124Y1623799D02*
X1970513D01*
X1967143Y1523899D02*
X1970494D01*
X1967144Y1576099D02*
X1970494D01*
X1967161Y1675999D02*
X1970477D01*
X1967190Y1674199D02*
X1970448D01*
X1967202Y1574299D02*
X1970436D01*
X1967202Y1525699D02*
X1970435D01*
X1967213Y1625599D02*
X1970425D01*
X1967234Y1624699D02*
X1970403D01*
X1967238Y1524799D02*
X1970399D01*
X1967238Y1575199D02*
X1970399D01*
X1967241Y1675099D02*
X1970397D01*
X1931100Y1668799D02*
X1960566D01*
X1931100Y1630999D02*
X1959386D01*
X1931100Y1619299D02*
X1958542D01*
X1931100Y1519399D02*
X1958323D01*
X1931100Y1580599D02*
X1958318D01*
X1931100Y1680499D02*
X1958120D01*
X1931100Y1669699D02*
X1957774D01*
X1931100Y1630099D02*
X1957464D01*
X1931100Y1620199D02*
X1957072D01*
X1931100Y1520299D02*
X1956954D01*
X1931100Y1579699D02*
X1956951D01*
X1931100Y1679599D02*
X1956838D01*
X1931100Y1670599D02*
X1956631D01*
X1931100Y1629199D02*
X1956437D01*
X1931100Y1621099D02*
X1956182D01*
X1931100Y1521199D02*
X1956103D01*
X1931100Y1578799D02*
X1956101D01*
X1931100Y1678699D02*
X1956025D01*
X1931100Y1671499D02*
X1955885D01*
X1931100Y1628299D02*
X1955752D01*
X1931100Y1621999D02*
X1955578D01*
X1931100Y1522099D02*
X1955524D01*
X1931100Y1577899D02*
X1955522D01*
X1931100Y1677799D02*
X1955471D01*
X1931100Y1672399D02*
X1955376D01*
X1931100Y1627399D02*
X1955287D01*
X1931100Y1622899D02*
X1955171D01*
X1931100Y1522999D02*
X1955136D01*
X1931100Y1576999D02*
X1955135D01*
X1931100Y1676899D02*
X1955102D01*
X1931100Y1673299D02*
X1955043D01*
X1931100Y1626499D02*
X1954989D01*
X1931100Y1573399D02*
X1954923D01*
X1931100Y1572499D02*
X1954923D01*
X1931100Y1571599D02*
X1954923D01*
X1931100Y1570699D02*
X1954923D01*
X1931100Y1569799D02*
X1954923D01*
X1931100Y1568899D02*
X1954923D01*
X1931100Y1567999D02*
X1954923D01*
X1931100Y1567099D02*
X1954923D01*
X1931100Y1566199D02*
X1954923D01*
X1931100Y1565299D02*
X1954923D01*
X1931100Y1564399D02*
X1954923D01*
X1931100Y1563499D02*
X1954923D01*
X1931100Y1562599D02*
X1954923D01*
X1931100Y1561699D02*
X1954923D01*
X1931100Y1560799D02*
X1954923D01*
X1931100Y1559899D02*
X1954923D01*
X1931100Y1558999D02*
X1954923D01*
X1931100Y1558099D02*
X1954923D01*
X1931100Y1557199D02*
X1954923D01*
X1931100Y1556299D02*
X1954923D01*
X1931100Y1555399D02*
X1954923D01*
X1931100Y1554499D02*
X1954923D01*
X1931100Y1553599D02*
X1954923D01*
X1931100Y1552699D02*
X1954923D01*
X1931100Y1551799D02*
X1954923D01*
X1931100Y1550899D02*
X1954923D01*
X1931100Y1549999D02*
X1954923D01*
X1931100Y1549099D02*
X1954923D01*
X1931100Y1548199D02*
X1954923D01*
X1931100Y1547299D02*
X1954923D01*
X1931100Y1546399D02*
X1954923D01*
X1931100Y1545499D02*
X1954923D01*
X1931100Y1544599D02*
X1954923D01*
X1931100Y1543699D02*
X1954923D01*
X1931100Y1542799D02*
X1954923D01*
X1931100Y1541899D02*
X1954923D01*
X1931100Y1540999D02*
X1954923D01*
X1931100Y1540099D02*
X1954923D01*
X1931100Y1539199D02*
X1954923D01*
X1931100Y1538299D02*
X1954923D01*
X1931100Y1537399D02*
X1954923D01*
X1931100Y1536499D02*
X1954923D01*
X1931100Y1535599D02*
X1954923D01*
X1931100Y1534699D02*
X1954923D01*
X1931100Y1533799D02*
X1954923D01*
X1931100Y1532899D02*
X1954923D01*
X1931100Y1531999D02*
X1954923D01*
X1931100Y1531099D02*
X1954923D01*
X1931100Y1530199D02*
X1954923D01*
X1931100Y1529299D02*
X1954923D01*
X1931100Y1528399D02*
X1954923D01*
X1931100Y1527499D02*
X1954923D01*
X1931100Y1526599D02*
X1954923D01*
X1931100Y1623799D02*
X1954923D01*
X1931100Y1523899D02*
X1954904D01*
X1931100Y1576099D02*
X1954903D01*
X1931100Y1675999D02*
X1954886D01*
X1931100Y1674199D02*
X1954857D01*
X1931100Y1574299D02*
X1954845D01*
X1931100Y1525699D02*
X1954845D01*
X1931100Y1625599D02*
X1954834D01*
X1931100Y1624699D02*
X1954813D01*
X1931100Y1524799D02*
X1954809D01*
X1931100Y1575199D02*
X1954809D01*
X1931100Y1675099D02*
X1954806D01*
X1931100Y1704799D02*
X2068900D01*
X1931100Y1703899D02*
X2068900D01*
X1931100Y1702999D02*
X2068900D01*
X1931100Y1702099D02*
X2068900D01*
X1931100Y1701199D02*
X2068900D01*
X1931100Y1700299D02*
X2068900D01*
X1931100Y1699399D02*
X2068900D01*
X1931100Y1698499D02*
X2068900D01*
X1931100Y1697599D02*
X2068900D01*
X1931100Y1696699D02*
X2068900D01*
X1931100Y1695799D02*
X2068900D01*
X1931100Y1694899D02*
X2068900D01*
X1931100Y1693999D02*
X2068900D01*
X1931100Y1693099D02*
X2068900D01*
X1931100Y1692199D02*
X2068900D01*
X1931100Y1691299D02*
X2068900D01*
X1931100Y1690399D02*
X2068900D01*
X1931100Y1689499D02*
X2068900D01*
X1931100Y1688599D02*
X2068900D01*
X1931100Y1687699D02*
X2068900D01*
X1931100Y1686799D02*
X2068900D01*
X1931100Y1685899D02*
X2068900D01*
X1931100Y1684999D02*
X2068900D01*
X1931100Y1684099D02*
X2068900D01*
X1931100Y1683199D02*
X2068900D01*
X1931100Y1682299D02*
X2068900D01*
X1931100Y1681399D02*
X2068900D01*
X2041880Y1680499D02*
X2068900D01*
X2043162Y1679599D02*
X2068900D01*
X2043975Y1678699D02*
X2068900D01*
X2044529Y1677799D02*
X2068900D01*
X2044897Y1676899D02*
X2068900D01*
X2045114Y1675999D02*
X2068900D01*
X2045194Y1675099D02*
X2068900D01*
X2045143Y1674199D02*
X2068900D01*
X2045076Y1673299D02*
X2068900D01*
X2045076Y1672399D02*
X2068900D01*
X2045076Y1671499D02*
X2068900D01*
X2045076Y1670599D02*
X2068900D01*
X2045076Y1669699D02*
X2068900D01*
X2045076Y1668799D02*
X2068900D01*
X2045076Y1667899D02*
X2068900D01*
X2045076Y1666999D02*
X2068900D01*
X2045076Y1666099D02*
X2068900D01*
X2045076Y1665199D02*
X2068900D01*
X2045076Y1664299D02*
X2068900D01*
X2045076Y1663399D02*
X2068900D01*
X2045076Y1662499D02*
X2068900D01*
X2045076Y1661599D02*
X2068900D01*
X2045076Y1660699D02*
X2068900D01*
X2045076Y1659799D02*
X2068900D01*
X2045076Y1658899D02*
X2068900D01*
X2045076Y1657999D02*
X2068900D01*
X2045076Y1657099D02*
X2068900D01*
X2045076Y1656199D02*
X2068900D01*
X2045076Y1655299D02*
X2068900D01*
X2045076Y1654399D02*
X2068900D01*
X2045076Y1653499D02*
X2068900D01*
X2045076Y1652599D02*
X2068900D01*
X2045076Y1651699D02*
X2068900D01*
X2045076Y1650799D02*
X2068900D01*
X2045076Y1649899D02*
X2068900D01*
X2045076Y1648999D02*
X2068900D01*
X2045076Y1648099D02*
X2068900D01*
X2045076Y1647199D02*
X2068900D01*
X2045076Y1646299D02*
X2068900D01*
X2045076Y1645399D02*
X2068900D01*
X2045076Y1644499D02*
X2068900D01*
X2045076Y1643599D02*
X2068900D01*
X2045076Y1642699D02*
X2068900D01*
X2045076Y1641799D02*
X2068900D01*
X2045076Y1640899D02*
X2068900D01*
X2045076Y1639999D02*
X2068900D01*
X2045076Y1639099D02*
X2068900D01*
X2045076Y1638199D02*
X2068900D01*
X2045076Y1637299D02*
X2068900D01*
X2045076Y1636399D02*
X2068900D01*
X2045076Y1635499D02*
X2068900D01*
X2045076Y1634599D02*
X2068900D01*
X2045076Y1633699D02*
X2068900D01*
X2045076Y1632799D02*
X2068900D01*
X2045076Y1631899D02*
X2068900D01*
X2045076Y1630999D02*
X2068900D01*
X2045076Y1630099D02*
X2068900D01*
X2045076Y1629199D02*
X2068900D01*
X2045076Y1628299D02*
X2068900D01*
X2045076Y1627399D02*
X2068900D01*
X2045076Y1626499D02*
X2068900D01*
X2045166Y1625599D02*
X2068900D01*
X2045187Y1624699D02*
X2068900D01*
X2045077Y1623799D02*
X2068900D01*
X2044829Y1622899D02*
X2068900D01*
X2044422Y1621999D02*
X2068900D01*
X2043818Y1621099D02*
X2068900D01*
X2042928Y1620199D02*
X2068900D01*
X2041458Y1619299D02*
X2068900D01*
X1931100Y1618399D02*
X2068900D01*
X1931100Y1617499D02*
X2068900D01*
X1931100Y1616599D02*
X2068900D01*
X1931100Y1615699D02*
X2068900D01*
X1931100Y1614799D02*
X2068900D01*
X1931100Y1613899D02*
X2068900D01*
X1931100Y1612999D02*
X2068900D01*
X1931100Y1612099D02*
X2068900D01*
X1931100Y1611199D02*
X2068900D01*
X1931100Y1610299D02*
X2068900D01*
X1931100Y1609399D02*
X2068900D01*
X1931100Y1608499D02*
X2068900D01*
X1931100Y1607599D02*
X2068900D01*
X1931100Y1606699D02*
X2068900D01*
X1931100Y1605799D02*
X2068900D01*
X1931100Y1604899D02*
X2068900D01*
X1931100Y1603999D02*
X2068900D01*
X1931100Y1603099D02*
X2068900D01*
X1931100Y1602199D02*
X2068900D01*
X1931100Y1601299D02*
X2068900D01*
X1931100Y1600399D02*
X2068900D01*
X1931100Y1599499D02*
X2068900D01*
X1931100Y1598599D02*
X2068900D01*
X1931100Y1597699D02*
X2068900D01*
X1931100Y1596799D02*
X2068900D01*
X1931100Y1595899D02*
X2068900D01*
X1931100Y1594999D02*
X2068900D01*
X1931100Y1594099D02*
X2068900D01*
X1931100Y1593199D02*
X2068900D01*
X1931100Y1592299D02*
X2068900D01*
X1931100Y1591399D02*
X2068900D01*
X1931100Y1590499D02*
X2068900D01*
X1931100Y1589599D02*
X2068900D01*
X1931100Y1588699D02*
X2068900D01*
X1931100Y1587799D02*
X2068900D01*
X1931100Y1586899D02*
X2068900D01*
X1931100Y1585999D02*
X2068900D01*
X1931100Y1585099D02*
X2068900D01*
X1931100Y1584199D02*
X2068900D01*
X1931100Y1583299D02*
X2068900D01*
X1931100Y1582399D02*
X2068900D01*
X1931100Y1581499D02*
X2068900D01*
X2041682Y1580599D02*
X2068900D01*
X2043049Y1579699D02*
X2068900D01*
X2043899Y1578799D02*
X2068900D01*
X2044477Y1577899D02*
X2068900D01*
X2044864Y1576999D02*
X2068900D01*
X2045097Y1576099D02*
X2068900D01*
X2045191Y1575199D02*
X2068900D01*
X2045155Y1574299D02*
X2068900D01*
X2045076Y1573399D02*
X2068900D01*
X2045076Y1572499D02*
X2068900D01*
X2045076Y1571599D02*
X2068900D01*
X2045076Y1570699D02*
X2068900D01*
X2045076Y1569799D02*
X2068900D01*
X2045076Y1568899D02*
X2068900D01*
X2045076Y1567999D02*
X2068900D01*
X2045076Y1567099D02*
X2068900D01*
X2045076Y1566199D02*
X2068900D01*
X2045076Y1565299D02*
X2068900D01*
X2045076Y1564399D02*
X2068900D01*
X2045076Y1563499D02*
X2068900D01*
X2045076Y1562599D02*
X2068900D01*
X2045076Y1561699D02*
X2068900D01*
X2045076Y1560799D02*
X2068900D01*
X2045076Y1559899D02*
X2068900D01*
X2045076Y1558999D02*
X2068900D01*
X2045076Y1558099D02*
X2068900D01*
X2045076Y1557199D02*
X2068900D01*
X2045076Y1556299D02*
X2068900D01*
X2045076Y1555399D02*
X2068900D01*
X2045076Y1554499D02*
X2068900D01*
X2045076Y1553599D02*
X2068900D01*
X2045076Y1552699D02*
X2068900D01*
X2045076Y1551799D02*
X2068900D01*
X2045076Y1550899D02*
X2068900D01*
X2045076Y1549999D02*
X2068900D01*
X2045076Y1549099D02*
X2068900D01*
X2045076Y1548199D02*
X2068900D01*
X2045076Y1547299D02*
X2068900D01*
X2045076Y1546399D02*
X2068900D01*
X2045076Y1545499D02*
X2068900D01*
X2045076Y1544599D02*
X2068900D01*
X2045076Y1543699D02*
X2068900D01*
X2045076Y1542799D02*
X2068900D01*
X2045076Y1541899D02*
X2068900D01*
X2045076Y1540999D02*
X2068900D01*
X2045076Y1540099D02*
X2068900D01*
X2045076Y1539199D02*
X2068900D01*
X2045076Y1538299D02*
X2068900D01*
X2045076Y1537399D02*
X2068900D01*
X2045076Y1536499D02*
X2068900D01*
X2045076Y1535599D02*
X2068900D01*
X2045076Y1534699D02*
X2068900D01*
X2045076Y1533799D02*
X2068900D01*
X2045076Y1532899D02*
X2068900D01*
X2045076Y1531999D02*
X2068900D01*
X2045076Y1531099D02*
X2068900D01*
X2045076Y1530199D02*
X2068900D01*
X2045076Y1529299D02*
X2068900D01*
X2045076Y1528399D02*
X2068900D01*
X2045076Y1527499D02*
X2068900D01*
X2045076Y1526599D02*
X2068900D01*
X2045155Y1525699D02*
X2068900D01*
X2045191Y1524799D02*
X2068900D01*
X2045096Y1523899D02*
X2068900D01*
X2044864Y1522999D02*
X2068900D01*
X2044476Y1522099D02*
X2068900D01*
X2043897Y1521199D02*
X2068900D01*
X2043046Y1520299D02*
X2068900D01*
X2041676Y1519399D02*
X2068900D01*
X1931100Y1518499D02*
X2068900D01*
X1931100Y1517599D02*
X2068900D01*
X1931100Y1516699D02*
X2068900D01*
X1931100Y1515799D02*
X2068900D01*
X1931100Y1514899D02*
X2068900D01*
X1931100Y1513999D02*
X2068900D01*
X1931100Y1513099D02*
X2068900D01*
X1931100Y1512199D02*
X2068900D01*
X1931100Y1511299D02*
X2068900D01*
X1931100Y1510399D02*
X2068900D01*
X1931100Y1509499D02*
X2068900D01*
X1931100Y1508599D02*
X2068900D01*
X1931100Y1507699D02*
X2068900D01*
X1931100Y1506799D02*
X2068900D01*
X1931100Y1505899D02*
X2068900D01*
X1931100Y1504999D02*
X2068900D01*
X1931100Y1504099D02*
X2068900D01*
X1931100Y1503199D02*
X2068900D01*
X1931100Y1502299D02*
X2068900D01*
X1931100Y1501399D02*
X2068900D01*
X1931100Y1500499D02*
X2068900D01*
X1931100Y1499599D02*
X2068900D01*
X1931100Y1498699D02*
X2068900D01*
X1931100Y1497799D02*
X2068900D01*
X1931100Y1496899D02*
X2068900D01*
X1931100Y1495999D02*
X2068900D01*
X1931100Y1495099D02*
X2068900D01*
X1931127Y1705699D02*
X2068873D01*
X1931136Y1494199D02*
X2068864D01*
X1931245Y1706599D02*
X2068755D01*
X1931264Y1493299D02*
X2068736D01*
X1931458Y1707499D02*
X2068542D01*
X1931489Y1492399D02*
X2068511D01*
X1931775Y1708399D02*
X2068225D01*
X1931818Y1491499D02*
X2068182D01*
X1932207Y1709299D02*
X2067793D01*
X1932264Y1490599D02*
X2067736D01*
X1932776Y1710199D02*
X2067224D01*
X1932851Y1489699D02*
X2067149D01*
X1933518Y1711099D02*
X2066482D01*
X1933616Y1488799D02*
X2066384D01*
X1934502Y1711999D02*
X2065498D01*
X1934635Y1487899D02*
X2065365D01*
X1935899Y1712899D02*
X2064101D01*
X1936103Y1486999D02*
X2063897D01*
X1938661Y1713799D02*
X2061339D01*
X2025868Y1619299D02*
X2036494D01*
X2026086Y1519399D02*
X2036276D01*
X2026091Y1580599D02*
X2036271D01*
X2026289Y1680499D02*
X2036073D01*
X2027337Y1620199D02*
X2035025D01*
X2027455Y1520299D02*
X2034907D01*
X2027458Y1579699D02*
X2034904D01*
X2027571Y1679599D02*
X2034791D01*
X2028228Y1621099D02*
X2034134D01*
X2028307Y1521199D02*
X2034055D01*
X2028309Y1578799D02*
X2034053D01*
X2028384Y1678699D02*
X2033978D01*
X2028832Y1621999D02*
X2033530D01*
X2028885Y1522099D02*
X2033477D01*
X2028887Y1577899D02*
X2033475D01*
X2028938Y1677799D02*
X2033424D01*
X2029238Y1622899D02*
X2033124D01*
X2029273Y1522999D02*
X2033089D01*
X2029274Y1576999D02*
X2033088D01*
X2029307Y1676899D02*
X2033055D01*
X2029486Y1673299D02*
X2032876D01*
X2029486Y1672399D02*
X2032876D01*
X2029486Y1671499D02*
X2032876D01*
X2029486Y1670599D02*
X2032876D01*
X2029486Y1669699D02*
X2032876D01*
X2029486Y1668799D02*
X2032876D01*
X2029486Y1667899D02*
X2032876D01*
X2029486Y1666999D02*
X2032876D01*
X2029486Y1666099D02*
X2032876D01*
X2029486Y1665199D02*
X2032876D01*
X2029486Y1664299D02*
X2032876D01*
X2029486Y1663399D02*
X2032876D01*
X2029486Y1662499D02*
X2032876D01*
X2029486Y1661599D02*
X2032876D01*
X2029486Y1660699D02*
X2032876D01*
X2029486Y1659799D02*
X2032876D01*
X2029486Y1658899D02*
X2032876D01*
X2029486Y1657999D02*
X2032876D01*
X2029486Y1657099D02*
X2032876D01*
X2029486Y1656199D02*
X2032876D01*
X2029486Y1655299D02*
X2032876D01*
X2029486Y1654399D02*
X2032876D01*
X2029486Y1653499D02*
X2032876D01*
X2029486Y1652599D02*
X2032876D01*
X2029486Y1651699D02*
X2032876D01*
X2029486Y1650799D02*
X2032876D01*
X2029486Y1649899D02*
X2032876D01*
X2029486Y1648999D02*
X2032876D01*
X2029486Y1648099D02*
X2032876D01*
X2029486Y1647199D02*
X2032876D01*
X2029486Y1646299D02*
X2032876D01*
X2029486Y1645399D02*
X2032876D01*
X2029486Y1644499D02*
X2032876D01*
X2029486Y1643599D02*
X2032876D01*
X2029486Y1642699D02*
X2032876D01*
X2029486Y1641799D02*
X2032876D01*
X2029486Y1640899D02*
X2032876D01*
X2029486Y1639999D02*
X2032876D01*
X2029486Y1639099D02*
X2032876D01*
X2029486Y1638199D02*
X2032876D01*
X2029486Y1637299D02*
X2032876D01*
X2029486Y1636399D02*
X2032876D01*
X2029486Y1635499D02*
X2032876D01*
X2029486Y1634599D02*
X2032876D01*
X2029486Y1633699D02*
X2032876D01*
X2029486Y1632799D02*
X2032876D01*
X2029486Y1631899D02*
X2032876D01*
X2029486Y1630999D02*
X2032876D01*
X2029486Y1630099D02*
X2032876D01*
X2029486Y1629199D02*
X2032876D01*
X2029486Y1628299D02*
X2032876D01*
X2029486Y1627399D02*
X2032876D01*
X2029486Y1626499D02*
X2032876D01*
X2029486Y1573399D02*
X2032876D01*
X2029486Y1572499D02*
X2032876D01*
X2029486Y1571599D02*
X2032876D01*
X2029486Y1570699D02*
X2032876D01*
X2029486Y1569799D02*
X2032876D01*
X2029486Y1568899D02*
X2032876D01*
X2029486Y1567999D02*
X2032876D01*
X2029486Y1567099D02*
X2032876D01*
X2029486Y1566199D02*
X2032876D01*
X2029486Y1565299D02*
X2032876D01*
X2029486Y1564399D02*
X2032876D01*
X2029486Y1563499D02*
X2032876D01*
X2029486Y1562599D02*
X2032876D01*
X2029486Y1561699D02*
X2032876D01*
X2029486Y1560799D02*
X2032876D01*
X2029486Y1559899D02*
X2032876D01*
X2029486Y1558999D02*
X2032876D01*
X2029486Y1558099D02*
X2032876D01*
X2029486Y1557199D02*
X2032876D01*
X2029486Y1556299D02*
X2032876D01*
X2029486Y1555399D02*
X2032876D01*
X2029486Y1554499D02*
X2032876D01*
X2029486Y1553599D02*
X2032876D01*
X2029486Y1552699D02*
X2032876D01*
X2029486Y1551799D02*
X2032876D01*
X2029486Y1550899D02*
X2032876D01*
X2029486Y1549999D02*
X2032876D01*
X2029486Y1549099D02*
X2032876D01*
X2029486Y1548199D02*
X2032876D01*
X2029486Y1547299D02*
X2032876D01*
X2029486Y1546399D02*
X2032876D01*
X2029486Y1545499D02*
X2032876D01*
X2029486Y1544599D02*
X2032876D01*
X2029486Y1543699D02*
X2032876D01*
X2029486Y1542799D02*
X2032876D01*
X2029486Y1541899D02*
X2032876D01*
X2029486Y1540999D02*
X2032876D01*
X2029486Y1540099D02*
X2032876D01*
X2029486Y1539199D02*
X2032876D01*
X2029486Y1538299D02*
X2032876D01*
X2029486Y1537399D02*
X2032876D01*
X2029486Y1536499D02*
X2032876D01*
X2029486Y1535599D02*
X2032876D01*
X2029486Y1534699D02*
X2032876D01*
X2029486Y1533799D02*
X2032876D01*
X2029486Y1532899D02*
X2032876D01*
X2029486Y1531999D02*
X2032876D01*
X2029486Y1531099D02*
X2032876D01*
X2029486Y1530199D02*
X2032876D01*
X2029486Y1529299D02*
X2032876D01*
X2029486Y1528399D02*
X2032876D01*
X2029486Y1527499D02*
X2032876D01*
X2029486Y1526599D02*
X2032876D01*
X2029487Y1623799D02*
X2032875D01*
X2029506Y1523899D02*
X2032856D01*
X2029506Y1576099D02*
X2032856D01*
X2029523Y1675999D02*
X2032839D01*
X2029552Y1674199D02*
X2032810D01*
X2029564Y1574299D02*
X2032798D01*
X2029564Y1525699D02*
X2032798D01*
X2029575Y1625599D02*
X2032787D01*
X2029597Y1624699D02*
X2032765D01*
X2029601Y1524799D02*
X2032761D01*
X2029601Y1575199D02*
X2032761D01*
X2029603Y1675099D02*
X2032759D01*
X2010277Y1619299D02*
X2020904D01*
X2010495Y1519399D02*
X2020686D01*
X2010501Y1580599D02*
X2020680D01*
X2010699Y1680499D02*
X2020482D01*
X2011746Y1620199D02*
X2019434D01*
X2011865Y1520299D02*
X2019316D01*
X2011868Y1579699D02*
X2019313D01*
X2011981Y1679599D02*
X2019200D01*
X2012637Y1621099D02*
X2018544D01*
X2012716Y1521199D02*
X2018465D01*
X2012718Y1578799D02*
X2018463D01*
X2012794Y1678699D02*
X2018387D01*
X2013241Y1621999D02*
X2017940D01*
X2013295Y1522099D02*
X2017886D01*
X2013296Y1577899D02*
X2017885D01*
X2013348Y1677799D02*
X2017833D01*
X2013648Y1622899D02*
X2017533D01*
X2013682Y1522999D02*
X2017498D01*
X2013683Y1576999D02*
X2017498D01*
X2013716Y1676899D02*
X2017465D01*
X2013895Y1673299D02*
X2017286D01*
X2013895Y1672399D02*
X2017286D01*
X2013895Y1671499D02*
X2017286D01*
X2013895Y1670599D02*
X2017286D01*
X2013895Y1669699D02*
X2017286D01*
X2013895Y1668799D02*
X2017286D01*
X2013895Y1667899D02*
X2017286D01*
X2013895Y1666999D02*
X2017286D01*
X2013895Y1666099D02*
X2017286D01*
X2013895Y1665199D02*
X2017286D01*
X2013895Y1664299D02*
X2017286D01*
X2013895Y1663399D02*
X2017286D01*
X2013895Y1662499D02*
X2017286D01*
X2013895Y1661599D02*
X2017286D01*
X2013895Y1660699D02*
X2017286D01*
X2013895Y1659799D02*
X2017286D01*
X2013895Y1658899D02*
X2017286D01*
X2013895Y1657999D02*
X2017286D01*
X2013895Y1657099D02*
X2017286D01*
X2013895Y1656199D02*
X2017286D01*
X2013895Y1655299D02*
X2017286D01*
X2013895Y1654399D02*
X2017286D01*
X2013895Y1653499D02*
X2017286D01*
X2013895Y1652599D02*
X2017286D01*
X2013895Y1651699D02*
X2017286D01*
X2013895Y1650799D02*
X2017286D01*
X2013895Y1649899D02*
X2017286D01*
X2013895Y1648999D02*
X2017286D01*
X2013895Y1648099D02*
X2017286D01*
X2013895Y1647199D02*
X2017286D01*
X2013895Y1646299D02*
X2017286D01*
X2013895Y1645399D02*
X2017286D01*
X2013895Y1644499D02*
X2017286D01*
X2013895Y1643599D02*
X2017286D01*
X2013895Y1642699D02*
X2017286D01*
X2013895Y1641799D02*
X2017286D01*
X2013895Y1640899D02*
X2017286D01*
X2013895Y1639999D02*
X2017286D01*
X2013895Y1639099D02*
X2017286D01*
X2013895Y1638199D02*
X2017286D01*
X2013895Y1637299D02*
X2017286D01*
X2013895Y1636399D02*
X2017286D01*
X2013895Y1635499D02*
X2017286D01*
X2013895Y1634599D02*
X2017286D01*
X2013895Y1633699D02*
X2017286D01*
X2013895Y1632799D02*
X2017286D01*
X2013895Y1631899D02*
X2017286D01*
X2013895Y1630999D02*
X2017286D01*
X2013895Y1630099D02*
X2017286D01*
X2013895Y1629199D02*
X2017286D01*
X2013895Y1628299D02*
X2017286D01*
X2013895Y1627399D02*
X2017286D01*
X2013895Y1626499D02*
X2017286D01*
X2013895Y1573399D02*
X2017286D01*
X2013895Y1572499D02*
X2017286D01*
X2013895Y1571599D02*
X2017286D01*
X2013895Y1570699D02*
X2017286D01*
X2013895Y1569799D02*
X2017286D01*
X2013895Y1568899D02*
X2017286D01*
X2013895Y1567999D02*
X2017286D01*
X2013895Y1567099D02*
X2017286D01*
X2013895Y1566199D02*
X2017286D01*
X2013895Y1565299D02*
X2017286D01*
X2013895Y1564399D02*
X2017286D01*
X2013895Y1563499D02*
X2017286D01*
X2013895Y1562599D02*
X2017286D01*
X2013895Y1561699D02*
X2017286D01*
X2013895Y1560799D02*
X2017286D01*
X2013895Y1559899D02*
X2017286D01*
X2013895Y1558999D02*
X2017286D01*
X2013895Y1558099D02*
X2017286D01*
X2013895Y1557199D02*
X2017286D01*
X2013895Y1556299D02*
X2017286D01*
X2013895Y1555399D02*
X2017286D01*
X2013895Y1554499D02*
X2017286D01*
X2013895Y1553599D02*
X2017286D01*
X2013895Y1552699D02*
X2017286D01*
X2013895Y1551799D02*
X2017286D01*
X2013895Y1550899D02*
X2017286D01*
X2013895Y1549999D02*
X2017286D01*
X2013895Y1549099D02*
X2017286D01*
X2013895Y1548199D02*
X2017286D01*
X2013895Y1547299D02*
X2017286D01*
X2013895Y1546399D02*
X2017286D01*
X2013895Y1545499D02*
X2017286D01*
X2013895Y1544599D02*
X2017286D01*
X2013895Y1543699D02*
X2017286D01*
X2013895Y1542799D02*
X2017286D01*
X2013895Y1541899D02*
X2017286D01*
X2013895Y1540999D02*
X2017286D01*
X2013895Y1540099D02*
X2017286D01*
X2013895Y1539199D02*
X2017286D01*
X2013895Y1538299D02*
X2017286D01*
X2013895Y1537399D02*
X2017286D01*
X2013895Y1536499D02*
X2017286D01*
X2013895Y1535599D02*
X2017286D01*
X2013895Y1534699D02*
X2017286D01*
X2013895Y1533799D02*
X2017286D01*
X2013895Y1532899D02*
X2017286D01*
X2013895Y1531999D02*
X2017286D01*
X2013895Y1531099D02*
X2017286D01*
X2013895Y1530199D02*
X2017286D01*
X2013895Y1529299D02*
X2017286D01*
X2013895Y1528399D02*
X2017286D01*
X2013895Y1527499D02*
X2017286D01*
X2013895Y1526599D02*
X2017286D01*
X2013896Y1623799D02*
X2017285D01*
X2013915Y1523899D02*
X2017266D01*
X2013915Y1576099D02*
X2017265D01*
X2013933Y1675999D02*
X2017248D01*
X2013961Y1674199D02*
X2017219D01*
X2013974Y1574299D02*
X2017207D01*
X2013974Y1525699D02*
X2017207D01*
X2013984Y1625599D02*
X2017196D01*
X2014006Y1624699D02*
X2017175D01*
X2014010Y1524799D02*
X2017171D01*
X2014010Y1575199D02*
X2017171D01*
X2014013Y1675099D02*
X2017168D01*
X1994687Y1619299D02*
X2005313D01*
X1994905Y1519399D02*
X2005095D01*
X1994910Y1580599D02*
X2005090D01*
X1995108Y1680499D02*
X2004892D01*
X1996156Y1620199D02*
X2003844D01*
X1996274Y1520299D02*
X2003725D01*
X1996277Y1579699D02*
X2003722D01*
X1996390Y1679599D02*
X2003610D01*
X1997047Y1621099D02*
X2002953D01*
X1997125Y1521199D02*
X2002874D01*
X1997127Y1578799D02*
X2002872D01*
X1997203Y1678699D02*
X2002797D01*
X1997650Y1621999D02*
X2002349D01*
X1997704Y1522099D02*
X2002295D01*
X1997706Y1577899D02*
X2002294D01*
X1997757Y1677799D02*
X2002243D01*
X1998057Y1622899D02*
X2001943D01*
X1998092Y1522999D02*
X2001908D01*
X1998093Y1576999D02*
X2001907D01*
X1998126Y1676899D02*
X2001874D01*
X1998305Y1673299D02*
X2001695D01*
X1998305Y1672399D02*
X2001695D01*
X1998305Y1671499D02*
X2001695D01*
X1998305Y1670599D02*
X2001695D01*
X1998305Y1669699D02*
X2001695D01*
X1998305Y1668799D02*
X2001695D01*
X1998305Y1667899D02*
X2001695D01*
X1998305Y1666999D02*
X2001695D01*
X1998305Y1666099D02*
X2001695D01*
X1998305Y1665199D02*
X2001695D01*
X1998305Y1664299D02*
X2001695D01*
X1998305Y1663399D02*
X2001695D01*
X1998305Y1662499D02*
X2001695D01*
X1998305Y1661599D02*
X2001695D01*
X1998305Y1660699D02*
X2001695D01*
X1998305Y1659799D02*
X2001695D01*
X1998305Y1658899D02*
X2001695D01*
X1998305Y1657999D02*
X2001695D01*
X1998305Y1657099D02*
X2001695D01*
X1998305Y1656199D02*
X2001695D01*
X1998305Y1655299D02*
X2001695D01*
X1998305Y1654399D02*
X2001695D01*
X1998305Y1653499D02*
X2001695D01*
X1998305Y1652599D02*
X2001695D01*
X1998305Y1651699D02*
X2001695D01*
X1998305Y1650799D02*
X2001695D01*
X1998305Y1649899D02*
X2001695D01*
X1998305Y1648999D02*
X2001695D01*
X1998305Y1648099D02*
X2001695D01*
X1998305Y1647199D02*
X2001695D01*
X1998305Y1646299D02*
X2001695D01*
X1998305Y1645399D02*
X2001695D01*
X1998305Y1644499D02*
X2001695D01*
X1998305Y1643599D02*
X2001695D01*
X1998305Y1642699D02*
X2001695D01*
X1998305Y1641799D02*
X2001695D01*
X1998305Y1640899D02*
X2001695D01*
X1998305Y1639999D02*
X2001695D01*
X1998305Y1639099D02*
X2001695D01*
X1998305Y1638199D02*
X2001695D01*
X1998305Y1637299D02*
X2001695D01*
X1998305Y1636399D02*
X2001695D01*
X1998305Y1635499D02*
X2001695D01*
X1998305Y1634599D02*
X2001695D01*
X1998305Y1633699D02*
X2001695D01*
X1998305Y1632799D02*
X2001695D01*
X1998305Y1631899D02*
X2001695D01*
X1998305Y1630999D02*
X2001695D01*
X1998305Y1630099D02*
X2001695D01*
X1998305Y1629199D02*
X2001695D01*
X1998305Y1628299D02*
X2001695D01*
X1998305Y1627399D02*
X2001695D01*
X1998305Y1626499D02*
X2001695D01*
X1998305Y1573399D02*
X2001695D01*
X1998305Y1572499D02*
X2001695D01*
X1998305Y1571599D02*
X2001695D01*
X1998305Y1570699D02*
X2001695D01*
X1998305Y1569799D02*
X2001695D01*
X1998305Y1568899D02*
X2001695D01*
X1998305Y1567999D02*
X2001695D01*
X1998305Y1567099D02*
X2001695D01*
X1998305Y1566199D02*
X2001695D01*
X1998305Y1565299D02*
X2001695D01*
X1998305Y1564399D02*
X2001695D01*
X1998305Y1563499D02*
X2001695D01*
X1998305Y1562599D02*
X2001695D01*
X1998305Y1561699D02*
X2001695D01*
X1998305Y1560799D02*
X2001695D01*
X1998305Y1559899D02*
X2001695D01*
X1998305Y1558999D02*
X2001695D01*
X1998305Y1558099D02*
X2001695D01*
X1998305Y1557199D02*
X2001695D01*
X1998305Y1556299D02*
X2001695D01*
X1998305Y1555399D02*
X2001695D01*
X1998305Y1554499D02*
X2001695D01*
X1998305Y1553599D02*
X2001695D01*
X1998305Y1552699D02*
X2001695D01*
X1998305Y1551799D02*
X2001695D01*
X1998305Y1550899D02*
X2001695D01*
X1998305Y1549999D02*
X2001695D01*
X1998305Y1549099D02*
X2001695D01*
X1998305Y1548199D02*
X2001695D01*
X1998305Y1547299D02*
X2001695D01*
X1998305Y1546399D02*
X2001695D01*
X1998305Y1545499D02*
X2001695D01*
X1998305Y1544599D02*
X2001695D01*
X1998305Y1543699D02*
X2001695D01*
X1998305Y1542799D02*
X2001695D01*
X1998305Y1541899D02*
X2001695D01*
X1998305Y1540999D02*
X2001695D01*
X1998305Y1540099D02*
X2001695D01*
X1998305Y1539199D02*
X2001695D01*
X1998305Y1538299D02*
X2001695D01*
X1998305Y1537399D02*
X2001695D01*
X1998305Y1536499D02*
X2001695D01*
X1998305Y1535599D02*
X2001695D01*
X1998305Y1534699D02*
X2001695D01*
X1998305Y1533799D02*
X2001695D01*
X1998305Y1532899D02*
X2001695D01*
X1998305Y1531999D02*
X2001695D01*
X1998305Y1531099D02*
X2001695D01*
X1998305Y1530199D02*
X2001695D01*
X1998305Y1529299D02*
X2001695D01*
X1998305Y1528399D02*
X2001695D01*
X1998305Y1527499D02*
X2001695D01*
X1998305Y1526599D02*
X2001695D01*
X1998306Y1623799D02*
X2001694D01*
X1998324Y1523899D02*
X2001675D01*
X1998325Y1576099D02*
X2001675D01*
X1998342Y1675999D02*
X2001658D01*
X1998371Y1674199D02*
X2001629D01*
X1998383Y1574299D02*
X2001617D01*
X1998383Y1525699D02*
X2001616D01*
X1998394Y1625599D02*
X2001606D01*
X1998415Y1624699D02*
X2001584D01*
X1998419Y1524799D02*
X2001580D01*
X1998420Y1575199D02*
X2001580D01*
X1998422Y1675099D02*
X2001578D01*
X1979096Y1619299D02*
X1989723D01*
X1979314Y1519399D02*
X1989505D01*
X1979320Y1580599D02*
X1989499D01*
X1979517Y1680499D02*
X1989301D01*
X1980565Y1620199D02*
X1988253D01*
X1980684Y1520299D02*
X1988135D01*
X1980687Y1579699D02*
X1988132D01*
X1980799Y1679599D02*
X1988019D01*
X1981456Y1621099D02*
X1987363D01*
X1981535Y1521199D02*
X1987284D01*
X1981537Y1578799D02*
X1987282D01*
X1981613Y1678699D02*
X1987206D01*
X1982060Y1621999D02*
X1986759D01*
X1982114Y1522099D02*
X1986705D01*
X1982115Y1577899D02*
X1986703D01*
X1982167Y1677799D02*
X1986652D01*
X1982466Y1622899D02*
X1986352D01*
X1982501Y1522999D02*
X1986317D01*
X1982502Y1576999D02*
X1986316D01*
X1982535Y1676899D02*
X1986283D01*
X1982714Y1673299D02*
X1986105D01*
X1982714Y1672399D02*
X1986105D01*
X1982714Y1671499D02*
X1986105D01*
X1982714Y1670599D02*
X1986105D01*
X1982714Y1669699D02*
X1986105D01*
X1982714Y1668799D02*
X1986105D01*
X1982714Y1667899D02*
X1986105D01*
X1982714Y1666999D02*
X1986105D01*
X1982714Y1666099D02*
X1986105D01*
X1982714Y1665199D02*
X1986105D01*
X1982714Y1664299D02*
X1986105D01*
X1982714Y1663399D02*
X1986105D01*
X1982714Y1662499D02*
X1986105D01*
X1982714Y1661599D02*
X1986105D01*
X1982714Y1660699D02*
X1986105D01*
X1982714Y1659799D02*
X1986105D01*
X1982714Y1658899D02*
X1986105D01*
X1982714Y1657999D02*
X1986105D01*
X1982714Y1657099D02*
X1986105D01*
X1982714Y1656199D02*
X1986105D01*
X1982714Y1655299D02*
X1986105D01*
X1982714Y1654399D02*
X1986105D01*
X1982714Y1653499D02*
X1986105D01*
X1982714Y1652599D02*
X1986105D01*
X1982714Y1651699D02*
X1986105D01*
X1982714Y1650799D02*
X1986105D01*
X1982714Y1649899D02*
X1986105D01*
X1982714Y1648999D02*
X1986105D01*
X1982714Y1648099D02*
X1986105D01*
X1982714Y1647199D02*
X1986105D01*
X1982714Y1646299D02*
X1986105D01*
X1982714Y1645399D02*
X1986105D01*
X1982714Y1644499D02*
X1986105D01*
X1982714Y1643599D02*
X1986105D01*
X1982714Y1642699D02*
X1986105D01*
X1982714Y1641799D02*
X1986105D01*
X1982714Y1640899D02*
X1986105D01*
X1982714Y1639999D02*
X1986105D01*
X1982714Y1639099D02*
X1986105D01*
X1982714Y1638199D02*
X1986105D01*
X1982714Y1637299D02*
X1986105D01*
X1982714Y1636399D02*
X1986105D01*
X1982714Y1635499D02*
X1986105D01*
X1982714Y1634599D02*
X1986105D01*
X1982714Y1633699D02*
X1986105D01*
X1982714Y1632799D02*
X1986105D01*
X1982714Y1631899D02*
X1986105D01*
X1982714Y1630999D02*
X1986105D01*
X1982714Y1630099D02*
X1986105D01*
X1982714Y1629199D02*
X1986105D01*
X1982714Y1628299D02*
X1986105D01*
X1982714Y1627399D02*
X1986105D01*
X1982714Y1626499D02*
X1986105D01*
X1982714Y1573399D02*
X1986105D01*
X1982714Y1572499D02*
X1986105D01*
X1982714Y1571599D02*
X1986105D01*
X1982714Y1570699D02*
X1986105D01*
X1982714Y1569799D02*
X1986105D01*
X1982714Y1568899D02*
X1986105D01*
X1982714Y1567999D02*
X1986105D01*
X1982714Y1567099D02*
X1986105D01*
X1982714Y1566199D02*
X1986105D01*
X1982714Y1565299D02*
X1986105D01*
X1982714Y1564399D02*
X1986105D01*
X1982714Y1563499D02*
X1986105D01*
X1982714Y1562599D02*
X1986105D01*
X1982714Y1561699D02*
X1986105D01*
X1982714Y1560799D02*
X1986105D01*
X1982714Y1559899D02*
X1986105D01*
X1982714Y1558999D02*
X1986105D01*
X1982714Y1558099D02*
X1986105D01*
X1982714Y1557199D02*
X1986105D01*
X1982714Y1556299D02*
X1986105D01*
X1982714Y1555399D02*
X1986105D01*
X1982714Y1554499D02*
X1986105D01*
X1982714Y1553599D02*
X1986105D01*
X1982714Y1552699D02*
X1986105D01*
X1982714Y1551799D02*
X1986105D01*
X1982714Y1550899D02*
X1986105D01*
X1982714Y1549999D02*
X1986105D01*
X1982714Y1549099D02*
X1986105D01*
X1982714Y1548199D02*
X1986105D01*
X1982714Y1547299D02*
X1986105D01*
X1982714Y1546399D02*
X1986105D01*
X1982714Y1545499D02*
X1986105D01*
X1982714Y1544599D02*
X1986105D01*
X1982714Y1543699D02*
X1986105D01*
X1982714Y1542799D02*
X1986105D01*
X1982714Y1541899D02*
X1986105D01*
X1982714Y1540999D02*
X1986105D01*
X1982714Y1540099D02*
X1986105D01*
X1982714Y1539199D02*
X1986105D01*
X1982714Y1538299D02*
X1986105D01*
X1982714Y1537399D02*
X1986105D01*
X1982714Y1536499D02*
X1986105D01*
X1982714Y1535599D02*
X1986105D01*
X1982714Y1534699D02*
X1986105D01*
X1982714Y1533799D02*
X1986105D01*
X1982714Y1532899D02*
X1986105D01*
X1982714Y1531999D02*
X1986105D01*
X1982714Y1531099D02*
X1986105D01*
X1982714Y1530199D02*
X1986105D01*
X1982714Y1529299D02*
X1986105D01*
X1982714Y1528399D02*
X1986105D01*
X1982714Y1527499D02*
X1986105D01*
X1982714Y1526599D02*
X1986105D01*
X1982715Y1623799D02*
X1986104D01*
X1982734Y1523899D02*
X1986085D01*
X1982734Y1576099D02*
X1986084D01*
X1982751Y1675999D02*
X1986067D01*
X1982780Y1674199D02*
X1986038D01*
X1982793Y1574299D02*
X1986026D01*
X1982793Y1525699D02*
X1986026D01*
X1982803Y1625599D02*
X1986015D01*
X1982825Y1624699D02*
X1985994D01*
X1982829Y1524799D02*
X1985990D01*
X1982829Y1575199D02*
X1985990D01*
X1982831Y1675099D02*
X1985987D01*
X1963505Y1619299D02*
X1974132D01*
X1963724Y1519399D02*
X1973914D01*
X1963729Y1580599D02*
X1973909D01*
X1963927Y1680499D02*
X1973711D01*
X1964975Y1620199D02*
X1972663D01*
X1965093Y1520299D02*
X1972544D01*
X1965096Y1579699D02*
X1972541D01*
X1965209Y1679599D02*
X1972429D01*
X1965866Y1621099D02*
X1971772D01*
X1965944Y1521199D02*
X1971693D01*
X1965946Y1578799D02*
X1971691D01*
X1966022Y1678699D02*
X1971616D01*
X1966469Y1621999D02*
X1971168D01*
X1966523Y1522099D02*
X1971114D01*
X1966525Y1577899D02*
X1971113D01*
X1966576Y1677799D02*
X1971061D01*
X1966876Y1622899D02*
X1970762D01*
X1966911Y1522999D02*
X1970727D01*
X1966912Y1576999D02*
X1970726D01*
X1966945Y1676899D02*
X1970693D01*
X1967004Y1673299D02*
X1970514D01*
X1966671Y1672399D02*
X1970514D01*
X1966162Y1671499D02*
X1970514D01*
X1965416Y1670599D02*
X1970514D01*
X1964273Y1669699D02*
X1970514D01*
X1961481Y1668799D02*
X1970514D01*
X1931100Y1667899D02*
X1970514D01*
X1931100Y1666999D02*
X1970514D01*
X1931100Y1666099D02*
X1970514D01*
X1931100Y1665199D02*
X1970514D01*
X1931100Y1664299D02*
X1970514D01*
X1931100Y1663399D02*
X1970514D01*
X1931100Y1662499D02*
X1970514D01*
X1931100Y1661599D02*
X1970514D01*
X1931100Y1660699D02*
X1970514D01*
X1931100Y1659799D02*
X1970514D01*
X1931100Y1658899D02*
X1970514D01*
X1931100Y1657999D02*
X1970514D01*
X1931100Y1657099D02*
X1970514D01*
X1931100Y1656199D02*
X1970514D01*
X1931100Y1655299D02*
X1970514D01*
X1931100Y1654399D02*
X1970514D01*
X1931100Y1653499D02*
X1970514D01*
X1931100Y1652599D02*
X1970514D01*
X1931100Y1651699D02*
X1970514D01*
X1931100Y1650799D02*
X1970514D01*
X1931100Y1649899D02*
X1970514D01*
X1931100Y1648999D02*
X1970514D01*
X1931100Y1648099D02*
X1970514D01*
X1931100Y1647199D02*
X1970514D01*
X1931100Y1646299D02*
X1970514D01*
X1931100Y1645399D02*
X1970514D01*
X1931100Y1644499D02*
X1970514D01*
X1931100Y1643599D02*
X1970514D01*
X1931100Y1642699D02*
X1970514D01*
X1931100Y1641799D02*
X1970514D01*
X1931100Y1640899D02*
X1970514D01*
X1931100Y1639999D02*
X1970514D01*
X1931100Y1639099D02*
X1970514D01*
X1931100Y1638199D02*
X1970514D01*
X1931100Y1637299D02*
X1970514D01*
X1931100Y1636399D02*
X1970514D01*
X1931100Y1635499D02*
X1970514D01*
X1931100Y1634599D02*
X1970514D01*
X1931100Y1633699D02*
X1970514D01*
X1931100Y1632799D02*
X1970514D01*
X1931100Y1631899D02*
X1970514D01*
X1962661Y1630999D02*
X1970514D01*
X1964583Y1630099D02*
X1970514D01*
X1965610Y1629199D02*
X1970514D01*
X1966295Y1628299D02*
X1970514D01*
X1966760Y1627399D02*
X1970514D01*
X1967058Y1626499D02*
X1970514D01*
X1967124Y1573399D02*
X1970514D01*
X1967124Y1572499D02*
X1970514D01*
X1967124Y1571599D02*
X1970514D01*
X1967124Y1570699D02*
X1970514D01*
X1967124Y1569799D02*
X1970514D01*
X1967124Y1568899D02*
X1970514D01*
X1967124Y1567999D02*
X1970514D01*
X1967124Y1567099D02*
X1970514D01*
X1967124Y1566199D02*
X1970514D01*
X1967124Y1565299D02*
X1970514D01*
X1967124Y1564399D02*
X1970514D01*
X1967124Y1563499D02*
X1970514D01*
X1967124Y1562599D02*
X1970514D01*
X1967124Y1561699D02*
X1970514D01*
X1967124Y1560799D02*
X1970514D01*
X1967124Y1559899D02*
X1970514D01*
X1967124Y1558999D02*
X1970514D01*
X1967124Y1558099D02*
X1970514D01*
X1967124Y1557199D02*
X1970514D01*
X1967124Y1556299D02*
X1970514D01*
X1967124Y1555399D02*
X1970514D01*
X1967124Y1554499D02*
X1970514D01*
X1967124Y1553599D02*
X1970514D01*
X1967124Y1552699D02*
X1970514D01*
X1967124Y1551799D02*
X1970514D01*
X1967124Y1550899D02*
X1970514D01*
X1967124Y1549999D02*
X1970514D01*
X1967124Y1549099D02*
X1970514D01*
X1967124Y1548199D02*
X1970514D01*
X1967124Y1547299D02*
X1970514D01*
X1967124Y1546399D02*
X1970514D01*
X1967124Y1545499D02*
X1970514D01*
X1967124Y1544599D02*
X1970514D01*
X1967124Y1543699D02*
X1970514D01*
X1967124Y1542799D02*
X1970514D01*
X1967124Y1541899D02*
X1970514D01*
X1967124Y1540999D02*
X1970514D01*
X1967124Y1540099D02*
X1970514D01*
X1967124Y1539199D02*
X1970514D01*
X1967124Y1538299D02*
X1970514D01*
X1967124Y1537399D02*
X1970514D01*
X1967124Y1536499D02*
X1970514D01*
X1967124Y1535599D02*
X1970514D01*
X1967124Y1534699D02*
X1970514D01*
X1967124Y1533799D02*
X1970514D01*
X1967124Y1532899D02*
X1970514D01*
X1967124Y1531999D02*
X1970514D01*
X1967124Y1531099D02*
X1970514D01*
X1967124Y1530199D02*
X1970514D01*
X1967124Y1529299D02*
X1970514D01*
X1967124Y1528399D02*
X1970514D01*
X1967124Y1527499D02*
X1970514D01*
X1967124Y1526599D02*
X1970514D01*
X1967124Y1623799D02*
X1970513D01*
X1967143Y1523899D02*
X1970494D01*
X1967144Y1576099D02*
X1970494D01*
X1967161Y1675999D02*
X1970477D01*
X1967190Y1674199D02*
X1970448D01*
X1967202Y1574299D02*
X1970436D01*
X1967202Y1525699D02*
X1970435D01*
X1967213Y1625599D02*
X1970425D01*
X1967234Y1624699D02*
X1970403D01*
X1967238Y1524799D02*
X1970399D01*
X1967238Y1575199D02*
X1970399D01*
X1967241Y1675099D02*
X1970397D01*
X1931100Y1668799D02*
X1960566D01*
X1931100Y1630999D02*
X1959386D01*
X1931100Y1619299D02*
X1958542D01*
X1931100Y1519399D02*
X1958323D01*
X1931100Y1580599D02*
X1958318D01*
X1931100Y1680499D02*
X1958120D01*
X1931100Y1669699D02*
X1957774D01*
X1931100Y1630099D02*
X1957464D01*
X1931100Y1620199D02*
X1957072D01*
X1931100Y1520299D02*
X1956954D01*
X1931100Y1579699D02*
X1956951D01*
X1931100Y1679599D02*
X1956838D01*
X1931100Y1670599D02*
X1956631D01*
X1931100Y1629199D02*
X1956437D01*
X1931100Y1621099D02*
X1956182D01*
X1931100Y1521199D02*
X1956103D01*
X1931100Y1578799D02*
X1956101D01*
X1931100Y1678699D02*
X1956025D01*
X1931100Y1671499D02*
X1955885D01*
X1931100Y1628299D02*
X1955752D01*
X1931100Y1621999D02*
X1955578D01*
X1931100Y1522099D02*
X1955524D01*
X1931100Y1577899D02*
X1955522D01*
X1931100Y1677799D02*
X1955471D01*
X1931100Y1672399D02*
X1955376D01*
X1931100Y1627399D02*
X1955287D01*
X1931100Y1622899D02*
X1955171D01*
X1931100Y1522999D02*
X1955136D01*
X1931100Y1576999D02*
X1955135D01*
X1931100Y1676899D02*
X1955102D01*
X1931100Y1673299D02*
X1955043D01*
X1931100Y1626499D02*
X1954989D01*
X1931100Y1573399D02*
X1954923D01*
X1931100Y1572499D02*
X1954923D01*
X1931100Y1571599D02*
X1954923D01*
X1931100Y1570699D02*
X1954923D01*
X1931100Y1569799D02*
X1954923D01*
X1931100Y1568899D02*
X1954923D01*
X1931100Y1567999D02*
X1954923D01*
X1931100Y1567099D02*
X1954923D01*
X1931100Y1566199D02*
X1954923D01*
X1931100Y1565299D02*
X1954923D01*
X1931100Y1564399D02*
X1954923D01*
X1931100Y1563499D02*
X1954923D01*
X1931100Y1562599D02*
X1954923D01*
X1931100Y1561699D02*
X1954923D01*
X1931100Y1560799D02*
X1954923D01*
X1931100Y1559899D02*
X1954923D01*
X1931100Y1558999D02*
X1954923D01*
X1931100Y1558099D02*
X1954923D01*
X1931100Y1557199D02*
X1954923D01*
X1931100Y1556299D02*
X1954923D01*
X1931100Y1555399D02*
X1954923D01*
X1931100Y1554499D02*
X1954923D01*
X1931100Y1553599D02*
X1954923D01*
X1931100Y1552699D02*
X1954923D01*
X1931100Y1551799D02*
X1954923D01*
X1931100Y1550899D02*
X1954923D01*
X1931100Y1549999D02*
X1954923D01*
X1931100Y1549099D02*
X1954923D01*
X1931100Y1548199D02*
X1954923D01*
X1931100Y1547299D02*
X1954923D01*
X1931100Y1546399D02*
X1954923D01*
X1931100Y1545499D02*
X1954923D01*
X1931100Y1544599D02*
X1954923D01*
X1931100Y1543699D02*
X1954923D01*
X1931100Y1542799D02*
X1954923D01*
X1931100Y1541899D02*
X1954923D01*
X1931100Y1540999D02*
X1954923D01*
X1931100Y1540099D02*
X1954923D01*
X1931100Y1539199D02*
X1954923D01*
X1931100Y1538299D02*
X1954923D01*
X1931100Y1537399D02*
X1954923D01*
X1931100Y1536499D02*
X1954923D01*
X1931100Y1535599D02*
X1954923D01*
X1931100Y1534699D02*
X1954923D01*
X1931100Y1533799D02*
X1954923D01*
X1931100Y1532899D02*
X1954923D01*
X1931100Y1531999D02*
X1954923D01*
X1931100Y1531099D02*
X1954923D01*
X1931100Y1530199D02*
X1954923D01*
X1931100Y1529299D02*
X1954923D01*
X1931100Y1528399D02*
X1954923D01*
X1931100Y1527499D02*
X1954923D01*
X1931100Y1526599D02*
X1954923D01*
X1931100Y1623799D02*
X1954923D01*
X1931100Y1523899D02*
X1954904D01*
X1931100Y1576099D02*
X1954903D01*
X1931100Y1675999D02*
X1954886D01*
X1931100Y1674199D02*
X1954857D01*
X1931100Y1574299D02*
X1954845D01*
X1931100Y1525699D02*
X1954845D01*
X1931100Y1625599D02*
X1954834D01*
X1931100Y1624699D02*
X1954813D01*
X1931100Y1524799D02*
X1954809D01*
X1931100Y1575199D02*
X1954809D01*
X1931100Y1675099D02*
X1954806D01*
X1940000Y1715000D02*
G03X1930000Y1705000I0J-10000D01*
G01X1940000Y1715000D02*
X2060000D01*
X2070000Y1705000D02*
G03X2060000Y1715000I-10000J0D01*
G01X2070000Y1705000D02*
Y1495000D01*
X2060000Y1485000D02*
G03X2070000Y1495000I0J10000D01*
G01X2060000Y1485000D02*
X1940000D01*
X1930000Y1495000D02*
G03X1940000Y1485000I10000J0D01*
G01X1930000Y1495000D02*
Y1705000D01*
G54D76*
G54D86*
X2023386Y1575000D02*
Y1525000D01*
X2007795Y1575000D02*
Y1525000D01*
X1992205Y1575000D02*
Y1525000D01*
X1976614Y1575000D02*
Y1525000D01*
X1961024Y1575000D02*
Y1525000D01*
X2038976Y1575000D02*
Y1525000D01*
X2023386Y1675000D02*
Y1625000D01*
X2007795Y1675000D02*
Y1625000D01*
X1992205Y1675000D02*
Y1625000D01*
X1976614Y1675000D02*
Y1625000D01*
X1961024Y1675000D02*
Y1625000D01*
X2038976Y1675000D02*
Y1625000D01*
G54D96*
X2015000Y1495000D03*
X1995000D03*
X1977500D03*
X1957500Y1497500D03*
X2052500D03*
X2035000Y1495000D03*
X1942500Y1505000D03*
Y1525000D03*
Y1542500D03*
Y1562500D03*
Y1580000D03*
X2060000Y1572500D03*
Y1552500D03*
Y1532500D03*
Y1512500D03*
X1942500Y1655000D03*
Y1637500D03*
Y1620000D03*
Y1602500D03*
X1957500D03*
X1975000D03*
X1990000D03*
X2007500D03*
X2025000D03*
X2060000Y1587500D03*
X2042500Y1602500D03*
X2057500D03*
Y1615000D03*
Y1627500D03*
Y1642500D03*
Y1657500D03*
X1945000Y1700000D03*
Y1687500D03*
Y1675000D03*
X2025000Y1702500D03*
X2007500D03*
X1992500D03*
X1977500D03*
X1960000D03*
X2057500Y1672500D03*
Y1685000D03*
Y1702500D03*
X2040000D03*
G54D132*
X1961024Y1675000D03*
X1976614D03*
X1992205D03*
X2007795D03*
X2023386D03*
X2038976D03*
X1961024Y1625000D03*
X1976614D03*
X1992205D03*
X2007795D03*
X2023386D03*
X2038976D03*
X1961024Y1575000D03*
X1976614D03*
X1992205D03*
X2007795D03*
X2023386D03*
X2038976D03*
X1961024Y1525000D03*
X1976614D03*
X1992205D03*
X2007795D03*
X2023386D03*
X2038976D03*
G74*
X0Y0D02*
M02*
