*
*
G04 PADS VX.2.3 Build Number: 9191294 generated Gerber (RS-274-X) file*
G04 PC Version=2.1*
*
%IN "3_96-6P转接板-V1.pcb"*%
*
%MOIN*%
*
%FSLAX35Y35*%
*
*
*
*
G04 PC Standard Apertures*
*
*
G04 Thermal Relief Aperture macro.*
%AMTER*
1,1,$1,0,0*
1,0,$1-$2,0,0*
21,0,$3,$4,0,0,45*
21,0,$3,$4,0,0,135*
%
*
*
G04 Annular Aperture macro.*
%AMANN*
1,1,$1,0,0*
1,0,$2,0,0*
%
*
*
G04 Odd Aperture macro.*
%AMODD*
1,1,$1,0,0*
1,0,$1-0.005,0,0*
%
*
*
G04 PC Custom Aperture Macros*
*
*
*
*
*
*
G04 PC Aperture Table*
*
%ADD010C,0.01*%
%ADD076C,0.001*%
%ADD096C,0.055*%
%ADD132C,0.10236*%
*
*
*
*
G04 PC Circuitry*
G04 Layer Name 3_96-6P转接板-V1.pcb - circuitry*
%LPD*%
*
*
G04 PC Custom Flashes*
G04 Layer Name 3_96-6P转接板-V1.pcb - flashes*
%LPD*%
*
*
G04 PC Circuitry*
G04 Layer Name 3_96-6P转接板-V1.pcb - circuitry*
%LPD*%
*
G54D10*
G01X1940000Y1715000D02*
G75*
G03X1930000Y1705000I0J-10000D01*
G01X1940000Y1715000D02*
X2060000D01*
X2070000Y1705000D02*
G03X2060000Y1715000I-10000J0D01*
G01X2070000Y1705000D02*
Y1495000D01*
X2060000Y1485000D02*
G03X2070000Y1495000I0J10000D01*
G01X2060000Y1485000D02*
X1940000D01*
X1930000Y1495000D02*
G03X1940000Y1485000I10000J0D01*
G01X1930000Y1495000D02*
Y1705000D01*
G54D76*
G54D96*
X2015000Y1495000D03*
X1995000D03*
X1977500D03*
X1957500Y1497500D03*
X2052500D03*
X2035000Y1495000D03*
X1942500Y1505000D03*
Y1525000D03*
Y1542500D03*
Y1562500D03*
Y1580000D03*
X2060000Y1572500D03*
Y1552500D03*
Y1532500D03*
Y1512500D03*
X1942500Y1655000D03*
Y1637500D03*
Y1620000D03*
Y1602500D03*
X1957500D03*
X1975000D03*
X1990000D03*
X2007500D03*
X2025000D03*
X2060000Y1587500D03*
X2042500Y1602500D03*
X2057500D03*
Y1615000D03*
Y1627500D03*
Y1642500D03*
Y1657500D03*
X1945000Y1700000D03*
Y1687500D03*
Y1675000D03*
X2025000Y1702500D03*
X2007500D03*
X1992500D03*
X1977500D03*
X1960000D03*
X2057500Y1672500D03*
Y1685000D03*
Y1702500D03*
X2040000D03*
G54D132*
X1961024Y1675000D03*
X1976614D03*
X1992205D03*
X2007795D03*
X2023386D03*
X2038976D03*
X1961024Y1625000D03*
X1976614D03*
X1992205D03*
X2007795D03*
X2023386D03*
X2038976D03*
X1961024Y1575000D03*
X1976614D03*
X1992205D03*
X2007795D03*
X2023386D03*
X2038976D03*
X1961024Y1525000D03*
X1976614D03*
X1992205D03*
X2007795D03*
X2023386D03*
X2038976D03*
G74*
X0Y0D02*
M02*
