*
*
G04 PADS VX.2.3 Build Number: 9191294 generated Gerber (RS-274-X) file*
G04 PC Version=2.1*
*
%IN "3_96-6P转接板-V1.pcb"*%
*
%MOIN*%
*
%FSLAX35Y35*%
*
*
*
*
G04 PC Standard Apertures*
*
*
G04 Thermal Relief Aperture macro.*
%AMTER*
1,1,$1,0,0*
1,0,$1-$2,0,0*
21,0,$3,$4,0,0,45*
21,0,$3,$4,0,0,135*
%
*
*
G04 Annular Aperture macro.*
%AMANN*
1,1,$1,0,0*
1,0,$2,0,0*
%
*
*
G04 Odd Aperture macro.*
%AMODD*
1,1,$1,0,0*
1,0,$1-0.005,0,0*
%
*
*
G04 PC Custom Aperture Macros*
*
*
*
*
*
*
G04 PC Aperture Table*
*
%ADD010C,0.01*%
%ADD076C,0.001*%
*
*
*
*
G04 PC Circuitry*
G04 Layer Name 3_96-6P转接板-V1.pcb - circuitry*
%LPD*%
*
*
G04 PC Custom Flashes*
G04 Layer Name 3_96-6P转接板-V1.pcb - flashes*
%LPD*%
*
*
G04 PC Circuitry*
G04 Layer Name 3_96-6P转接板-V1.pcb - circuitry*
%LPD*%
*
G54D10*
G01X3145449Y1675000D02*
X3153449D01*
X3149449Y1671000D02*
Y1679000D01*
X3151449Y1680281D02*
Y1677000D01*
Y1680281D02*
X3152926D01*
X3151449Y1678719D02*
X3152358D01*
X3151449Y1677000D02*
X3152926D01*
X3161039Y1675000D02*
X3169039D01*
X3165039Y1671000D02*
Y1679000D01*
X3167039Y1680281D02*
Y1677000D01*
Y1680281D02*
X3168517D01*
X3167039Y1678719D02*
X3167948D01*
X3167039Y1677000D02*
X3168517D01*
X3176630Y1675000D02*
X3184630D01*
X3180630Y1671000D02*
Y1679000D01*
X3182630Y1680281D02*
Y1677000D01*
Y1680281D02*
X3184107D01*
X3182630Y1678719D02*
X3183539D01*
X3182630Y1677000D02*
X3184107D01*
X3192220Y1675000D02*
X3200220D01*
X3196220Y1671000D02*
Y1679000D01*
X3198220Y1680281D02*
Y1677000D01*
Y1680281D02*
X3199698D01*
X3198220Y1678719D02*
X3199129D01*
X3198220Y1677000D02*
X3199698D01*
X3207811Y1675000D02*
X3215811D01*
X3211811Y1671000D02*
Y1679000D01*
X3213811Y1680281D02*
Y1677000D01*
Y1680281D02*
X3215288D01*
X3213811Y1678719D02*
X3214720D01*
X3213811Y1677000D02*
X3215288D01*
X3223401Y1675000D02*
X3231401D01*
X3227401Y1671000D02*
Y1679000D01*
X3229401Y1680281D02*
Y1677000D01*
Y1680281D02*
X3230879D01*
X3229401Y1678719D02*
X3230311D01*
X3229401Y1677000D02*
X3230879D01*
X3145449Y1625000D02*
X3153449D01*
X3149449Y1621000D02*
Y1629000D01*
X3151449Y1630281D02*
Y1627000D01*
Y1630281D02*
X3152926D01*
X3151449Y1628719D02*
X3152358D01*
X3151449Y1627000D02*
X3152926D01*
X3161039Y1625000D02*
X3169039D01*
X3165039Y1621000D02*
Y1629000D01*
X3167039Y1630281D02*
Y1627000D01*
Y1630281D02*
X3168517D01*
X3167039Y1628719D02*
X3167948D01*
X3167039Y1627000D02*
X3168517D01*
X3176630Y1625000D02*
X3184630D01*
X3180630Y1621000D02*
Y1629000D01*
X3182630Y1630281D02*
Y1627000D01*
Y1630281D02*
X3184107D01*
X3182630Y1628719D02*
X3183539D01*
X3182630Y1627000D02*
X3184107D01*
X3192220Y1625000D02*
X3200220D01*
X3196220Y1621000D02*
Y1629000D01*
X3198220Y1630281D02*
Y1627000D01*
Y1630281D02*
X3199698D01*
X3198220Y1628719D02*
X3199129D01*
X3198220Y1627000D02*
X3199698D01*
X3207811Y1625000D02*
X3215811D01*
X3211811Y1621000D02*
Y1629000D01*
X3213811Y1630281D02*
Y1627000D01*
Y1630281D02*
X3215288D01*
X3213811Y1628719D02*
X3214720D01*
X3213811Y1627000D02*
X3215288D01*
X3223401Y1625000D02*
X3231401D01*
X3227401Y1621000D02*
Y1629000D01*
X3229401Y1630281D02*
Y1627000D01*
Y1630281D02*
X3230879D01*
X3229401Y1628719D02*
X3230311D01*
X3229401Y1627000D02*
X3230879D01*
X3145449Y1575000D02*
X3153449D01*
X3149449Y1571000D02*
Y1579000D01*
X3151449Y1580281D02*
Y1577000D01*
Y1580281D02*
X3152926D01*
X3151449Y1578719D02*
X3152358D01*
X3151449Y1577000D02*
X3152926D01*
X3161039Y1575000D02*
X3169039D01*
X3165039Y1571000D02*
Y1579000D01*
X3167039Y1580281D02*
Y1577000D01*
Y1580281D02*
X3168517D01*
X3167039Y1578719D02*
X3167948D01*
X3167039Y1577000D02*
X3168517D01*
X3176630Y1575000D02*
X3184630D01*
X3180630Y1571000D02*
Y1579000D01*
X3182630Y1580281D02*
Y1577000D01*
Y1580281D02*
X3184107D01*
X3182630Y1578719D02*
X3183539D01*
X3182630Y1577000D02*
X3184107D01*
X3192220Y1575000D02*
X3200220D01*
X3196220Y1571000D02*
Y1579000D01*
X3198220Y1580281D02*
Y1577000D01*
Y1580281D02*
X3199698D01*
X3198220Y1578719D02*
X3199129D01*
X3198220Y1577000D02*
X3199698D01*
X3207811Y1575000D02*
X3215811D01*
X3211811Y1571000D02*
Y1579000D01*
X3213811Y1580281D02*
Y1577000D01*
Y1580281D02*
X3215288D01*
X3213811Y1578719D02*
X3214720D01*
X3213811Y1577000D02*
X3215288D01*
X3223401Y1575000D02*
X3231401D01*
X3227401Y1571000D02*
Y1579000D01*
X3229401Y1580281D02*
Y1577000D01*
Y1580281D02*
X3230879D01*
X3229401Y1578719D02*
X3230311D01*
X3229401Y1577000D02*
X3230879D01*
X3145449Y1525000D02*
X3153449D01*
X3149449Y1521000D02*
Y1529000D01*
X3151449Y1530281D02*
Y1527000D01*
Y1530281D02*
X3152926D01*
X3151449Y1528719D02*
X3152358D01*
X3151449Y1527000D02*
X3152926D01*
X3161039Y1525000D02*
X3169039D01*
X3165039Y1521000D02*
Y1529000D01*
X3167039Y1530281D02*
Y1527000D01*
Y1530281D02*
X3168517D01*
X3167039Y1528719D02*
X3167948D01*
X3167039Y1527000D02*
X3168517D01*
X3176630Y1525000D02*
X3184630D01*
X3180630Y1521000D02*
Y1529000D01*
X3182630Y1530281D02*
Y1527000D01*
Y1530281D02*
X3184107D01*
X3182630Y1528719D02*
X3183539D01*
X3182630Y1527000D02*
X3184107D01*
X3192220Y1525000D02*
X3200220D01*
X3196220Y1521000D02*
Y1529000D01*
X3198220Y1530281D02*
Y1527000D01*
Y1530281D02*
X3199698D01*
X3198220Y1528719D02*
X3199129D01*
X3198220Y1527000D02*
X3199698D01*
X3207811Y1525000D02*
X3215811D01*
X3211811Y1521000D02*
Y1529000D01*
X3213811Y1530281D02*
Y1527000D01*
Y1530281D02*
X3215288D01*
X3213811Y1528719D02*
X3214720D01*
X3213811Y1527000D02*
X3215288D01*
X3223401Y1525000D02*
X3231401D01*
X3227401Y1521000D02*
Y1529000D01*
X3229401Y1530281D02*
Y1527000D01*
Y1530281D02*
X3230879D01*
X3229401Y1528719D02*
X3230311D01*
X3229401Y1527000D02*
X3230879D01*
X3199425Y1495000D02*
X3207425D01*
X3203425Y1491000D02*
Y1499000D01*
X3205425Y1500281D02*
Y1497000D01*
Y1500281D02*
X3206221D01*
X3206562Y1500125*
X3206789Y1499813*
X3206789D02*
X3206902Y1499500D01*
X3207016Y1499031*
Y1498250*
X3206902Y1497781*
X3206789Y1497469*
X3206562Y1497156*
X3206221Y1497000*
X3205425*
X3179425Y1495000D02*
X3187425D01*
X3183425Y1491000D02*
Y1499000D01*
X3185425Y1500281D02*
Y1497000D01*
Y1500281D02*
X3186221D01*
X3186562Y1500125*
X3186789Y1499813*
X3186789D02*
X3186902Y1499500D01*
X3187016Y1499031*
Y1498250*
X3186902Y1497781*
X3186789Y1497469*
X3186562Y1497156*
X3186221Y1497000*
X3185425*
X3161925Y1495000D02*
X3169925D01*
X3165925Y1491000D02*
Y1499000D01*
X3167925Y1500281D02*
Y1497000D01*
Y1500281D02*
X3168721D01*
X3169062Y1500125*
X3169289Y1499813*
X3169289D02*
X3169402Y1499500D01*
X3169516Y1499031*
Y1498250*
X3169402Y1497781*
X3169289Y1497469*
X3169062Y1497156*
X3168721Y1497000*
X3167925*
X3141925Y1497500D02*
X3149925D01*
X3145925Y1493500D02*
Y1501500D01*
X3147925Y1502781D02*
Y1499500D01*
Y1502781D02*
X3148721D01*
X3149062Y1502625*
X3149289Y1502313*
X3149289D02*
X3149402Y1502000D01*
X3149516Y1501531*
Y1500750*
X3149402Y1500281*
X3149289Y1499969*
X3149062Y1499656*
X3148721Y1499500*
X3147925*
X3236925Y1497500D02*
X3244925D01*
X3240925Y1493500D02*
Y1501500D01*
X3242925Y1502781D02*
Y1499500D01*
Y1502781D02*
X3243721D01*
X3244062Y1502625*
X3244289Y1502313*
X3244289D02*
X3244402Y1502000D01*
X3244516Y1501531*
Y1500750*
X3244402Y1500281*
X3244289Y1499969*
X3244062Y1499656*
X3243721Y1499500*
X3242925*
X3219425Y1495000D02*
X3227425D01*
X3223425Y1491000D02*
Y1499000D01*
X3225425Y1500281D02*
Y1497000D01*
Y1500281D02*
X3226221D01*
X3226562Y1500125*
X3226789Y1499813*
X3226789D02*
X3226902Y1499500D01*
X3227016Y1499031*
Y1498250*
X3226902Y1497781*
X3226789Y1497469*
X3226562Y1497156*
X3226221Y1497000*
X3225425*
X3126925Y1505000D02*
X3134925D01*
X3130925Y1501000D02*
Y1509000D01*
X3132925Y1510281D02*
Y1507000D01*
Y1510281D02*
X3133721D01*
X3134062Y1510125*
X3134289Y1509813*
X3134289D02*
X3134402Y1509500D01*
X3134516Y1509031*
Y1508250*
X3134402Y1507781*
X3134289Y1507469*
X3134062Y1507156*
X3133721Y1507000*
X3132925*
X3126925Y1525000D02*
X3134925D01*
X3130925Y1521000D02*
Y1529000D01*
X3132925Y1530281D02*
Y1527000D01*
Y1530281D02*
X3133721D01*
X3134062Y1530125*
X3134289Y1529813*
X3134289D02*
X3134402Y1529500D01*
X3134516Y1529031*
Y1528250*
X3134402Y1527781*
X3134289Y1527469*
X3134062Y1527156*
X3133721Y1527000*
X3132925*
X3126925Y1542500D02*
X3134925D01*
X3130925Y1538500D02*
Y1546500D01*
X3132925Y1547781D02*
Y1544500D01*
Y1547781D02*
X3133721D01*
X3134062Y1547625*
X3134289Y1547313*
X3134289D02*
X3134402Y1547000D01*
X3134516Y1546531*
Y1545750*
X3134402Y1545281*
X3134289Y1544969*
X3134062Y1544656*
X3133721Y1544500*
X3132925*
X3126925Y1562500D02*
X3134925D01*
X3130925Y1558500D02*
Y1566500D01*
X3132925Y1567781D02*
Y1564500D01*
Y1567781D02*
X3133721D01*
X3134062Y1567625*
X3134289Y1567313*
X3134289D02*
X3134402Y1567000D01*
X3134516Y1566531*
Y1565750*
X3134402Y1565281*
X3134289Y1564969*
X3134062Y1564656*
X3133721Y1564500*
X3132925*
X3126925Y1580000D02*
X3134925D01*
X3130925Y1576000D02*
Y1584000D01*
X3132925Y1585281D02*
Y1582000D01*
Y1585281D02*
X3133721D01*
X3134062Y1585125*
X3134289Y1584813*
X3134289D02*
X3134402Y1584500D01*
X3134516Y1584031*
Y1583250*
X3134402Y1582781*
X3134289Y1582469*
X3134062Y1582156*
X3133721Y1582000*
X3132925*
X3244425Y1572500D02*
X3252425D01*
X3248425Y1568500D02*
Y1576500D01*
X3250425Y1577781D02*
Y1574500D01*
Y1577781D02*
X3251221D01*
X3251562Y1577625*
X3251789Y1577313*
X3251789D02*
X3251902Y1577000D01*
X3252016Y1576531*
Y1575750*
X3251902Y1575281*
X3251789Y1574969*
X3251562Y1574656*
X3251221Y1574500*
X3250425*
X3244425Y1552500D02*
X3252425D01*
X3248425Y1548500D02*
Y1556500D01*
X3250425Y1557781D02*
Y1554500D01*
Y1557781D02*
X3251221D01*
X3251562Y1557625*
X3251789Y1557313*
X3251789D02*
X3251902Y1557000D01*
X3252016Y1556531*
Y1555750*
X3251902Y1555281*
X3251789Y1554969*
X3251562Y1554656*
X3251221Y1554500*
X3250425*
X3244425Y1532500D02*
X3252425D01*
X3248425Y1528500D02*
Y1536500D01*
X3250425Y1537781D02*
Y1534500D01*
Y1537781D02*
X3251221D01*
X3251562Y1537625*
X3251789Y1537313*
X3251789D02*
X3251902Y1537000D01*
X3252016Y1536531*
Y1535750*
X3251902Y1535281*
X3251789Y1534969*
X3251562Y1534656*
X3251221Y1534500*
X3250425*
X3244425Y1512500D02*
X3252425D01*
X3248425Y1508500D02*
Y1516500D01*
X3250425Y1517781D02*
Y1514500D01*
Y1517781D02*
X3251221D01*
X3251562Y1517625*
X3251789Y1517313*
X3251789D02*
X3251902Y1517000D01*
X3252016Y1516531*
Y1515750*
X3251902Y1515281*
X3251789Y1514969*
X3251562Y1514656*
X3251221Y1514500*
X3250425*
X3126925Y1655000D02*
X3134925D01*
X3130925Y1651000D02*
Y1659000D01*
X3132925Y1660281D02*
Y1657000D01*
Y1660281D02*
X3133721D01*
X3134062Y1660125*
X3134289Y1659813*
X3134289D02*
X3134402Y1659500D01*
X3134516Y1659031*
Y1658250*
X3134402Y1657781*
X3134289Y1657469*
X3134062Y1657156*
X3133721Y1657000*
X3132925*
X3126925Y1637500D02*
X3134925D01*
X3130925Y1633500D02*
Y1641500D01*
X3132925Y1642781D02*
Y1639500D01*
Y1642781D02*
X3133721D01*
X3134062Y1642625*
X3134289Y1642313*
X3134289D02*
X3134402Y1642000D01*
X3134516Y1641531*
Y1640750*
X3134402Y1640281*
X3134289Y1639969*
X3134062Y1639656*
X3133721Y1639500*
X3132925*
X3126925Y1620000D02*
X3134925D01*
X3130925Y1616000D02*
Y1624000D01*
X3132925Y1625281D02*
Y1622000D01*
Y1625281D02*
X3133721D01*
X3134062Y1625125*
X3134289Y1624813*
X3134289D02*
X3134402Y1624500D01*
X3134516Y1624031*
Y1623250*
X3134402Y1622781*
X3134289Y1622469*
X3134062Y1622156*
X3133721Y1622000*
X3132925*
X3126925Y1602500D02*
X3134925D01*
X3130925Y1598500D02*
Y1606500D01*
X3132925Y1607781D02*
Y1604500D01*
Y1607781D02*
X3133721D01*
X3134062Y1607625*
X3134289Y1607313*
X3134289D02*
X3134402Y1607000D01*
X3134516Y1606531*
Y1605750*
X3134402Y1605281*
X3134289Y1604969*
X3134062Y1604656*
X3133721Y1604500*
X3132925*
X3141925Y1602500D02*
X3149925D01*
X3145925Y1598500D02*
Y1606500D01*
X3147925Y1607781D02*
Y1604500D01*
Y1607781D02*
X3148721D01*
X3149062Y1607625*
X3149289Y1607313*
X3149289D02*
X3149402Y1607000D01*
X3149516Y1606531*
Y1605750*
X3149402Y1605281*
X3149289Y1604969*
X3149062Y1604656*
X3148721Y1604500*
X3147925*
X3159425Y1602500D02*
X3167425D01*
X3163425Y1598500D02*
Y1606500D01*
X3165425Y1607781D02*
Y1604500D01*
Y1607781D02*
X3166221D01*
X3166562Y1607625*
X3166789Y1607313*
X3166789D02*
X3166902Y1607000D01*
X3167016Y1606531*
Y1605750*
X3166902Y1605281*
X3166789Y1604969*
X3166562Y1604656*
X3166221Y1604500*
X3165425*
X3174425Y1602500D02*
X3182425D01*
X3178425Y1598500D02*
Y1606500D01*
X3180425Y1607781D02*
Y1604500D01*
Y1607781D02*
X3181221D01*
X3181562Y1607625*
X3181789Y1607313*
X3181789D02*
X3181902Y1607000D01*
X3182016Y1606531*
Y1605750*
X3181902Y1605281*
X3181789Y1604969*
X3181562Y1604656*
X3181221Y1604500*
X3180425*
X3191925Y1602500D02*
X3199925D01*
X3195925Y1598500D02*
Y1606500D01*
X3197925Y1607781D02*
Y1604500D01*
Y1607781D02*
X3198721D01*
X3199062Y1607625*
X3199289Y1607313*
X3199289D02*
X3199402Y1607000D01*
X3199516Y1606531*
Y1605750*
X3199402Y1605281*
X3199289Y1604969*
X3199062Y1604656*
X3198721Y1604500*
X3197925*
X3209425Y1602500D02*
X3217425D01*
X3213425Y1598500D02*
Y1606500D01*
X3215425Y1607781D02*
Y1604500D01*
Y1607781D02*
X3216221D01*
X3216562Y1607625*
X3216789Y1607313*
X3216789D02*
X3216902Y1607000D01*
X3217016Y1606531*
Y1605750*
X3216902Y1605281*
X3216789Y1604969*
X3216562Y1604656*
X3216221Y1604500*
X3215425*
X3244425Y1587500D02*
X3252425D01*
X3248425Y1583500D02*
Y1591500D01*
X3250425Y1592781D02*
Y1589500D01*
Y1592781D02*
X3251221D01*
X3251562Y1592625*
X3251789Y1592313*
X3251789D02*
X3251902Y1592000D01*
X3252016Y1591531*
Y1590750*
X3251902Y1590281*
X3251789Y1589969*
X3251562Y1589656*
X3251221Y1589500*
X3250425*
X3226925Y1602500D02*
X3234925D01*
X3230925Y1598500D02*
Y1606500D01*
X3232925Y1607781D02*
Y1604500D01*
Y1607781D02*
X3233721D01*
X3234062Y1607625*
X3234289Y1607313*
X3234289D02*
X3234402Y1607000D01*
X3234516Y1606531*
Y1605750*
X3234402Y1605281*
X3234289Y1604969*
X3234062Y1604656*
X3233721Y1604500*
X3232925*
X3241925Y1602500D02*
X3249925D01*
X3245925Y1598500D02*
Y1606500D01*
X3247925Y1607781D02*
Y1604500D01*
Y1607781D02*
X3248721D01*
X3249062Y1607625*
X3249289Y1607313*
X3249289D02*
X3249402Y1607000D01*
X3249516Y1606531*
Y1605750*
X3249402Y1605281*
X3249289Y1604969*
X3249062Y1604656*
X3248721Y1604500*
X3247925*
X3241925Y1615000D02*
X3249925D01*
X3245925Y1611000D02*
Y1619000D01*
X3247925Y1620281D02*
Y1617000D01*
Y1620281D02*
X3248721D01*
X3249062Y1620125*
X3249289Y1619813*
X3249289D02*
X3249402Y1619500D01*
X3249516Y1619031*
Y1618250*
X3249402Y1617781*
X3249289Y1617469*
X3249062Y1617156*
X3248721Y1617000*
X3247925*
X3241925Y1627500D02*
X3249925D01*
X3245925Y1623500D02*
Y1631500D01*
X3247925Y1632781D02*
Y1629500D01*
Y1632781D02*
X3248721D01*
X3249062Y1632625*
X3249289Y1632313*
X3249289D02*
X3249402Y1632000D01*
X3249516Y1631531*
Y1630750*
X3249402Y1630281*
X3249289Y1629969*
X3249062Y1629656*
X3248721Y1629500*
X3247925*
X3241925Y1642500D02*
X3249925D01*
X3245925Y1638500D02*
Y1646500D01*
X3247925Y1647781D02*
Y1644500D01*
Y1647781D02*
X3248721D01*
X3249062Y1647625*
X3249289Y1647313*
X3249289D02*
X3249402Y1647000D01*
X3249516Y1646531*
Y1645750*
X3249402Y1645281*
X3249289Y1644969*
X3249062Y1644656*
X3248721Y1644500*
X3247925*
X3241925Y1657500D02*
X3249925D01*
X3245925Y1653500D02*
Y1661500D01*
X3247925Y1662781D02*
Y1659500D01*
Y1662781D02*
X3248721D01*
X3249062Y1662625*
X3249289Y1662313*
X3249289D02*
X3249402Y1662000D01*
X3249516Y1661531*
Y1660750*
X3249402Y1660281*
X3249289Y1659969*
X3249062Y1659656*
X3248721Y1659500*
X3247925*
X3129425Y1700000D02*
X3137425D01*
X3133425Y1696000D02*
Y1704000D01*
X3135425Y1705281D02*
Y1702000D01*
Y1705281D02*
X3136221D01*
X3136562Y1705125*
X3136789Y1704813*
X3136789D02*
X3136902Y1704500D01*
X3137016Y1704031*
Y1703250*
X3136902Y1702781*
X3136789Y1702469*
X3136562Y1702156*
X3136221Y1702000*
X3135425*
X3129425Y1687500D02*
X3137425D01*
X3133425Y1683500D02*
Y1691500D01*
X3135425Y1692781D02*
Y1689500D01*
Y1692781D02*
X3136221D01*
X3136562Y1692625*
X3136789Y1692313*
X3136789D02*
X3136902Y1692000D01*
X3137016Y1691531*
Y1690750*
X3136902Y1690281*
X3136789Y1689969*
X3136562Y1689656*
X3136221Y1689500*
X3135425*
X3129425Y1675000D02*
X3137425D01*
X3133425Y1671000D02*
Y1679000D01*
X3135425Y1680281D02*
Y1677000D01*
Y1680281D02*
X3136221D01*
X3136562Y1680125*
X3136789Y1679813*
X3136789D02*
X3136902Y1679500D01*
X3137016Y1679031*
Y1678250*
X3136902Y1677781*
X3136789Y1677469*
X3136562Y1677156*
X3136221Y1677000*
X3135425*
X3209425Y1702500D02*
X3217425D01*
X3213425Y1698500D02*
Y1706500D01*
X3215425Y1707781D02*
Y1704500D01*
Y1707781D02*
X3216221D01*
X3216562Y1707625*
X3216789Y1707313*
X3216789D02*
X3216902Y1707000D01*
X3217016Y1706531*
Y1705750*
X3216902Y1705281*
X3216789Y1704969*
X3216562Y1704656*
X3216221Y1704500*
X3215425*
X3191925Y1702500D02*
X3199925D01*
X3195925Y1698500D02*
Y1706500D01*
X3197925Y1707781D02*
Y1704500D01*
Y1707781D02*
X3198721D01*
X3199062Y1707625*
X3199289Y1707313*
X3199289D02*
X3199402Y1707000D01*
X3199516Y1706531*
Y1705750*
X3199402Y1705281*
X3199289Y1704969*
X3199062Y1704656*
X3198721Y1704500*
X3197925*
X3176925Y1702500D02*
X3184925D01*
X3180925Y1698500D02*
Y1706500D01*
X3182925Y1707781D02*
Y1704500D01*
Y1707781D02*
X3183721D01*
X3184062Y1707625*
X3184289Y1707313*
X3184289D02*
X3184402Y1707000D01*
X3184516Y1706531*
Y1705750*
X3184402Y1705281*
X3184289Y1704969*
X3184062Y1704656*
X3183721Y1704500*
X3182925*
X3161925Y1702500D02*
X3169925D01*
X3165925Y1698500D02*
Y1706500D01*
X3167925Y1707781D02*
Y1704500D01*
Y1707781D02*
X3168721D01*
X3169062Y1707625*
X3169289Y1707313*
X3169289D02*
X3169402Y1707000D01*
X3169516Y1706531*
Y1705750*
X3169402Y1705281*
X3169289Y1704969*
X3169062Y1704656*
X3168721Y1704500*
X3167925*
X3144425Y1702500D02*
X3152425D01*
X3148425Y1698500D02*
Y1706500D01*
X3150425Y1707781D02*
Y1704500D01*
Y1707781D02*
X3151221D01*
X3151562Y1707625*
X3151789Y1707313*
X3151789D02*
X3151902Y1707000D01*
X3152016Y1706531*
Y1705750*
X3151902Y1705281*
X3151789Y1704969*
X3151562Y1704656*
X3151221Y1704500*
X3150425*
X3241925Y1672500D02*
X3249925D01*
X3245925Y1668500D02*
Y1676500D01*
X3247925Y1677781D02*
Y1674500D01*
Y1677781D02*
X3248721D01*
X3249062Y1677625*
X3249289Y1677313*
X3249289D02*
X3249402Y1677000D01*
X3249516Y1676531*
Y1675750*
X3249402Y1675281*
X3249289Y1674969*
X3249062Y1674656*
X3248721Y1674500*
X3247925*
X3241925Y1685000D02*
X3249925D01*
X3245925Y1681000D02*
Y1689000D01*
X3247925Y1690281D02*
Y1687000D01*
Y1690281D02*
X3248721D01*
X3249062Y1690125*
X3249289Y1689813*
X3249289D02*
X3249402Y1689500D01*
X3249516Y1689031*
Y1688250*
X3249402Y1687781*
X3249289Y1687469*
X3249062Y1687156*
X3248721Y1687000*
X3247925*
X3241925Y1702500D02*
X3249925D01*
X3245925Y1698500D02*
Y1706500D01*
X3247925Y1707781D02*
Y1704500D01*
Y1707781D02*
X3248721D01*
X3249062Y1707625*
X3249289Y1707313*
X3249289D02*
X3249402Y1707000D01*
X3249516Y1706531*
Y1705750*
X3249402Y1705281*
X3249289Y1704969*
X3249062Y1704656*
X3248721Y1704500*
X3247925*
X3224425Y1702500D02*
X3232425D01*
X3228425Y1698500D02*
Y1706500D01*
X3230425Y1707781D02*
Y1704500D01*
Y1707781D02*
X3231221D01*
X3231562Y1707625*
X3231789Y1707313*
X3231789D02*
X3231902Y1707000D01*
X3232016Y1706531*
Y1705750*
X3231902Y1705281*
X3231789Y1704969*
X3231562Y1704656*
X3231221Y1704500*
X3230425*
X3128425Y1715000D02*
G75*
G03X3118425Y1705000I0J-10000D01*
G01X3128425Y1715000D02*
X3248425D01*
X3258425Y1705000D02*
G03X3248425Y1715000I-10000J0D01*
G01X3258425Y1705000D02*
Y1495000D01*
X3248425Y1485000D02*
G03X3258425Y1495000I0J10000D01*
G01X3248425Y1485000D02*
X3128425D01*
X3118425Y1495000D02*
G03X3128425Y1485000I10000J0D01*
G01X3118425Y1495000D02*
Y1705000D01*
X741575Y1697000D02*
X999575D01*
X741575Y1673000D02*
X999575D01*
X741575Y1649000D02*
X999575D01*
X741575Y1625000D02*
X999575D01*
X741575Y1697000D02*
Y1625000D01*
X825575Y1697000D02*
Y1625000D01*
X861575Y1697000D02*
Y1625000D01*
X897575Y1697000D02*
Y1625000D01*
X951575Y1697000D02*
Y1625000D01*
X999575Y1697000D02*
Y1625000D01*
X968257Y1686875D02*
Y1679000D01*
X966348Y1686875D02*
X970166D01*
X974257D02*
X973711Y1686500D01*
X973166Y1685750*
X972893Y1685000*
X972620Y1683875*
Y1682000*
X972893Y1680875*
X973166Y1680125*
X973711Y1679375*
X974257Y1679000*
X975348*
X975893Y1679375*
X976438Y1680125*
X976711Y1680875*
X976984Y1682000*
Y1683875*
X976711Y1685000*
X976438Y1685750*
X975893Y1686500*
X975348Y1686875*
X974257*
X979438D02*
Y1679000D01*
X982711*
X749211Y1662875D02*
X748393Y1662500D01*
X747848Y1661375*
X747575Y1659500*
Y1658375*
X747848Y1656500*
X748393Y1655375*
X749211Y1655000*
X749757*
X750575Y1655375*
X751120Y1656500*
X751393Y1658375*
Y1659500*
X751120Y1661375*
X750575Y1662500*
X749757Y1662875*
X749211*
X754120Y1655750D02*
X753848Y1655375D01*
X754120Y1655000*
X754393Y1655375*
X754120Y1655750*
X760393Y1660250D02*
X760120Y1659125D01*
X759575Y1658375*
X758757Y1658000*
X758484*
X757666Y1658375*
X757120Y1659125*
X756848Y1660250*
Y1660625*
X757120Y1661750*
X757666Y1662500*
X758484Y1662875*
X758757*
X759575Y1662500*
X760120Y1661750*
X760393Y1660250*
Y1658375*
X760120Y1656500*
X759575Y1655375*
X758757Y1655000*
X758211*
X757393Y1655375*
X757120Y1656125*
X763393Y1662875D02*
X766393D01*
X764757Y1659875*
X765575*
X766120Y1659500*
X766393Y1659125*
X766666Y1658000*
Y1657250*
X766393Y1656125*
X765848Y1655375*
X765029Y1655000*
X764211*
X763393Y1655375*
X763120Y1655750*
X762848Y1656500*
X772666Y1660250D02*
X772393Y1659125D01*
X771848Y1658375*
X771029Y1658000*
X770757*
X769938Y1658375*
X769393Y1659125*
X769120Y1660250*
Y1660625*
X769393Y1661750*
X769938Y1662500*
X770757Y1662875*
X771029*
X771848Y1662500*
X772393Y1661750*
X772666Y1660250*
Y1658375*
X772393Y1656500*
X771848Y1655375*
X771029Y1655000*
X770484*
X769666Y1655375*
X769393Y1656125*
X776484Y1662875D02*
X775666Y1662500D01*
X775393Y1661750*
Y1661000*
X775666Y1660250*
X776211Y1659875*
X777302Y1659500*
X778120Y1659125*
X778666Y1658375*
X778938Y1657625*
Y1656500*
X778666Y1655750*
X778393Y1655375*
X777575Y1655000*
X776484*
X775666Y1655375*
X775393Y1655750*
X775120Y1656500*
Y1657625*
X775393Y1658375*
X775938Y1659125*
X776757Y1659500*
X777848Y1659875*
X778393Y1660250*
X778666Y1661000*
Y1661750*
X778393Y1662500*
X777575Y1662875*
X776484*
X840075D02*
X837348Y1657625D01*
X841438*
X840075Y1662875D02*
Y1655000D01*
X844438Y1662875D02*
X847438D01*
X845802Y1659875*
X846620*
X847166Y1659500*
X847438Y1659125*
X847711Y1658000*
Y1657250*
X847438Y1656125*
X846893Y1655375*
X846075Y1655000*
X845257*
X844438Y1655375*
X844166Y1655750*
X843893Y1656500*
X873575Y1661000D02*
X885575D01*
X879575Y1655000D02*
Y1667000D01*
X882575Y1670300D02*
Y1664000D01*
Y1670300D02*
X884102D01*
X884757Y1670000*
X885193Y1669400*
X885411Y1668800*
X885629Y1667900*
Y1666400*
X885411Y1665500*
X885193Y1664900*
X884757Y1664300*
X884102Y1664000*
X882575*
X906211Y1662875D02*
X908393Y1659125D01*
Y1655000*
X910575Y1662875D02*
X908393Y1659125D01*
X913029Y1662875D02*
Y1655000D01*
Y1662875D02*
X916575D01*
X913029Y1659125D02*
X915211D01*
X913029Y1655000D02*
X916575D01*
X922848Y1661750D02*
X922302Y1662500D01*
X921484Y1662875*
X920393*
X919575Y1662500*
X919029Y1661750*
Y1661000*
X919302Y1660250*
X919575Y1659875*
X920120Y1659500*
X921757Y1658750*
X922302Y1658375*
X922575Y1658000*
X922848Y1657250*
Y1656125*
X922302Y1655375*
X921484Y1655000*
X920393*
X919575Y1655375*
X919029Y1656125*
X959393Y1661750D02*
Y1655000D01*
X956938Y1658375D02*
X961848D01*
X969211Y1664375D02*
X964302Y1652375D01*
X971666Y1658375D02*
X976575D01*
X980666Y1662875D02*
X979848Y1662500D01*
X979302Y1661375*
X979029Y1659500*
Y1658375*
X979302Y1656500*
X979848Y1655375*
X980666Y1655000*
X981211*
X982029Y1655375*
X982575Y1656500*
X982848Y1658375*
Y1659500*
X982575Y1661375*
X982029Y1662500*
X981211Y1662875*
X980666*
X985575Y1655750D02*
X985302Y1655375D01*
X985575Y1655000*
X985848Y1655375*
X985575Y1655750*
X989938Y1662875D02*
X989120Y1662500D01*
X988575Y1661375*
X988302Y1659500*
Y1658375*
X988575Y1656500*
X989120Y1655375*
X989938Y1655000*
X990484*
X991302Y1655375*
X991848Y1656500*
X992120Y1658375*
Y1659500*
X991848Y1661375*
X991302Y1662500*
X990484Y1662875*
X989938*
X747575Y1637375D02*
X748120Y1637750D01*
X748938Y1638875*
Y1631000*
X751666Y1631750D02*
X751393Y1631375D01*
X751666Y1631000*
X751938Y1631375*
X751666Y1631750*
X758211Y1638875D02*
X755484Y1631000D01*
X754393Y1638875D02*
X758211D01*
X762302D02*
X761484Y1638500D01*
X760938Y1637375*
X760666Y1635500*
Y1634375*
X760938Y1632500*
X761484Y1631375*
X762302Y1631000*
X762848*
X763666Y1631375*
X764211Y1632500*
X764484Y1634375*
Y1635500*
X764211Y1637375*
X763666Y1638500*
X762848Y1638875*
X762302*
X768575D02*
X767757Y1638500D01*
X767211Y1637375*
X766938Y1635500*
Y1634375*
X767211Y1632500*
X767757Y1631375*
X768575Y1631000*
X769120*
X769938Y1631375*
X770484Y1632500*
X770757Y1634375*
Y1635500*
X770484Y1637375*
X769938Y1638500*
X769120Y1638875*
X768575*
X774848D02*
X774029Y1638500D01*
X773484Y1637375*
X773211Y1635500*
Y1634375*
X773484Y1632500*
X774029Y1631375*
X774848Y1631000*
X775393*
X776211Y1631375*
X776757Y1632500*
X777029Y1634375*
Y1635500*
X776757Y1637375*
X776211Y1638500*
X775393Y1638875*
X774848*
X779757Y1637000D02*
Y1637375D01*
X780029Y1638125*
X780302Y1638500*
X780848Y1638875*
X781938*
X782484Y1638500*
X782757Y1638125*
X783029Y1637375*
Y1636625*
X782757Y1635875*
X782211Y1634750*
X779484Y1631000*
X783302*
X837620Y1637000D02*
Y1637375D01*
X837893Y1638125*
X838166Y1638500*
X838711Y1638875*
X839802*
X840348Y1638500*
X840620Y1638125*
X840893Y1637375*
Y1636625*
X840620Y1635875*
X840075Y1634750*
X837348Y1631000*
X841166*
X846348Y1638875D02*
X843620Y1633625D01*
X847711*
X846348Y1638875D02*
Y1631000D01*
X873575Y1637000D02*
X885575D01*
X879575Y1631000D02*
Y1643000D01*
X882575Y1646300D02*
Y1640000D01*
Y1646300D02*
X885411D01*
X882575Y1643300D02*
X884320D01*
X882575Y1640000D02*
X885411D01*
X906211Y1638875D02*
X908393Y1635125D01*
Y1631000*
X910575Y1638875D02*
X908393Y1635125D01*
X913029Y1638875D02*
Y1631000D01*
Y1638875D02*
X916575D01*
X913029Y1635125D02*
X915211D01*
X913029Y1631000D02*
X916575D01*
X922848Y1637750D02*
X922302Y1638500D01*
X921484Y1638875*
X920393*
X919575Y1638500*
X919029Y1637750*
Y1637000*
X919302Y1636250*
X919575Y1635875*
X920120Y1635500*
X921757Y1634750*
X922302Y1634375*
X922575Y1634000*
X922848Y1633250*
Y1632125*
X922302Y1631375*
X921484Y1631000*
X920393*
X919575Y1631375*
X919029Y1632125*
X959393Y1637750D02*
Y1631000D01*
X956938Y1634375D02*
X961848D01*
X969211Y1640375D02*
X964302Y1628375D01*
X971666Y1634375D02*
X976575D01*
X980666Y1638875D02*
X979848Y1638500D01*
X979302Y1637375*
X979029Y1635500*
Y1634375*
X979302Y1632500*
X979848Y1631375*
X980666Y1631000*
X981211*
X982029Y1631375*
X982575Y1632500*
X982848Y1634375*
Y1635500*
X982575Y1637375*
X982029Y1638500*
X981211Y1638875*
X980666*
X985575Y1631750D02*
X985302Y1631375D01*
X985575Y1631000*
X985848Y1631375*
X985575Y1631750*
X989938Y1638875D02*
X989120Y1638500D01*
X988575Y1637375*
X988302Y1635500*
Y1634375*
X988575Y1632500*
X989120Y1631375*
X989938Y1631000*
X990484*
X991302Y1631375*
X991848Y1632500*
X992120Y1634375*
Y1635500*
X991848Y1637375*
X991302Y1638500*
X990484Y1638875*
X989938*
G54D76*
G74*
X0Y0D02*
M02*
