M48
;FILE_FORMAT=2:4
INCH,LZ
FMAT,2
ICI,OFF
;TYPE=PLATED
T1C.037
T2C.06693
%
M72
G90
G93X0Y0
T1C.037F197S55
X19075Y-00275
X18925Y-002
X18925Y0
X18925Y00175
X18925Y00375
X18925Y0055
X18925Y00775
X19075Y00775
X18925Y0095
X18925Y01125
X18925Y013
X1895Y015
X1895Y01625
X1895Y0175
X191Y01775
X19275Y01775
X19575Y01775
X19425Y01775
X19575Y00775
X1925Y00775
X194Y00775
X19275Y-003
X1945Y-003
X1965Y-003
X1985Y-003
X20025Y-00275
X201Y-00125
X201Y00075
X201Y00275
X201Y00475
X201Y00625
X19925Y00775
X20075Y00775
X1975Y00775
X20075Y009
X20075Y01025
X20075Y01175
X20075Y01325
X20075Y01475
X20075Y016
X199Y01775
X20075Y01775
X1975Y01775
T2C.06693F089S55
X191102Y0
X192661Y0
X19422Y0
X192661Y005
X19422Y005
X191102Y005
X19422Y01
X191102Y01
X192661Y01
X192661Y015
X19422Y015
X191102Y015
X19578Y015
X198898Y015
X197339Y015
X197339Y01
X198898Y01
X19578Y01
X19578Y005
X197339Y005
X198898Y005
X19578Y0
X197339Y0
X198898Y0
M30
